<svg width="56" height="56" viewBox="0 0 56 56" fill="none" xmlns="http://www.w3.org/2000/svg">
<path d="M2.13965 33.1948V38.361C2.13965 45.6669 2.13965 49.3199 4.40934 51.5896C6.67903 53.8594 10.332 53.8594 17.6381 53.8594H38.3026C45.6086 53.8594 49.2615 53.8594 51.5313 51.5896C53.801 49.3199 53.801 45.6669 53.801 38.361V28.0287C53.801 20.7227 53.801 17.0697 51.5313 14.8C49.2615 12.5303 45.6086 12.5303 38.3026 12.5303H17.6381C10.332 12.5303 6.67903 12.5303 4.40934 14.8C2.75282 16.4565 2.3053 18.8499 2.18439 22.8625" stroke="#A3283E" stroke-width="3" stroke-linecap="round"/>
<path d="M20.2207 2.19824L27.9699 11.239L35.7191 2.19824" stroke="#A3283E" stroke-width="3" stroke-linecap="round"/>
<path d="M38.3027 12.5303V22.8625M38.3027 53.8594V33.1948" stroke="#A3283E" stroke-width="3" stroke-linecap="round"/>
<path d="M48.6349 38.3614C48.6349 36.9348 47.4784 35.7783 46.0518 35.7783C44.6252 35.7783 43.4688 36.9348 43.4688 38.3614C43.4688 39.788 44.6252 40.9445 46.0518 40.9445C47.4784 40.9445 48.6349 39.788 48.6349 38.3614Z" fill="#A3283E"/>
<path d="M48.6349 28.0289C48.6349 26.6022 47.4784 25.4458 46.0518 25.4458C44.6252 25.4458 43.4688 26.6022 43.4688 28.0289C43.4688 29.4555 44.6252 30.6119 46.0518 30.6119C47.4784 30.6119 48.6349 29.4555 48.6349 28.0289Z" fill="#A3283E"/>
</svg>
