<svg width="61" height="54" viewBox="0 0 61 54" fill="none" xmlns="http://www.w3.org/2000/svg">
<path d="M22.1281 53.7191C21.8752 53.7191 21.7234 53.6685 21.5211 53.5674C20.6105 52.9603 16.3106 49.7733 19.9023 43.45C20.8634 41.73 21.1164 40.3642 20.7623 39.2513C20.3576 37.9866 19.0423 37.4807 19.0423 37.4807C18.4353 37.2278 18.1318 36.5196 18.3847 35.9125C18.587 35.4067 18.9917 35.1032 19.4976 35.1032C19.6494 35.1032 19.8011 35.1537 19.9529 35.2043C20.1552 35.2043 22.2799 36.1149 23.1399 38.3913C23.7975 40.2124 23.4434 42.3371 22.0775 44.7147C19.5482 49.1663 22.2293 51.1392 22.7857 51.4933C23.3422 51.7968 23.5445 52.5556 23.241 53.1627C22.9375 53.5674 22.4822 53.7191 22.1281 53.7191ZM30.3232 51.038C30.0702 51.038 29.9185 50.9874 29.7161 50.8863C27.895 49.8239 25.3151 46.5358 28.1985 41.3759C29.0585 39.8077 29.3114 38.5431 28.9573 37.5819C28.6032 36.469 27.4397 36.0137 27.4397 36.0137C26.7821 35.7608 26.4786 35.1032 26.7315 34.4455C26.9339 33.9397 27.3386 33.6361 27.8444 33.6361C27.9962 33.6361 28.1479 33.6867 28.2997 33.7373C28.8056 33.9397 30.5761 34.7491 31.2843 36.7725C31.8914 38.4925 31.5879 40.4654 30.3232 42.6406C27.895 46.9911 30.8291 48.7616 30.9808 48.8122C31.2337 48.964 31.4361 49.2169 31.5373 49.5204C31.6384 49.8239 31.5879 50.178 31.4361 50.4816C31.1326 50.8863 30.6773 51.038 30.3232 51.038ZM13.5284 51.038C13.2754 51.038 13.1237 50.9874 12.9213 50.8863C11.1002 49.8239 8.52026 46.5358 11.4037 41.3759C12.2637 39.8077 12.5166 38.5431 12.1625 37.5819C11.8084 36.469 10.6449 36.0137 10.6449 36.0137C9.98728 35.7608 9.68375 35.1032 9.93669 34.4455C10.139 33.9397 10.5437 33.6361 11.0496 33.6361C11.2014 33.6361 11.3531 33.6867 11.5049 33.7373C12.0107 33.9397 13.7813 34.7996 14.4895 36.7725C15.0965 38.4925 14.7424 40.4654 13.5284 42.6912C11.1002 47.0417 14.0342 48.8122 14.186 48.8628C14.4389 49.0145 14.6413 49.2675 14.7424 49.571C14.8436 49.8745 14.793 50.2286 14.6413 50.5321C14.3883 50.8863 13.8825 51.038 13.5284 51.038ZM44.3357 46.5358C43.931 46.5358 43.6275 46.384 43.3746 46.1311C43.1217 45.8782 42.9699 45.524 42.9699 45.1699C42.9699 44.6135 43.324 44.1076 43.8299 43.8547H43.8805V41.123L41.3005 42.59V42.6406C41.3005 43.0453 41.1488 43.5512 40.6429 43.8041C40.4405 43.9559 40.1876 44.0064 39.9347 44.0064C39.4288 44.0064 38.9735 43.7535 38.7712 43.3488C38.5688 42.9947 38.5182 42.6406 38.6194 42.2865C38.7206 41.9324 38.9229 41.6289 39.2771 41.4771C39.4794 41.3253 39.7323 41.2748 39.9347 41.2748C40.1876 41.2748 40.4405 41.3253 40.6429 41.4771L42.9699 40.1618L40.6935 38.8466C40.39 38.9478 40.137 38.9983 39.9347 38.9983C39.6817 38.9983 39.4794 38.9478 39.2771 38.8466C38.67 38.4419 38.4171 37.5819 38.7712 36.9749C39.0241 36.5702 39.4794 36.3172 39.9853 36.3172C40.2382 36.3172 40.4911 36.3678 40.6935 36.5196C41.0982 36.7725 41.3511 37.1772 41.3511 37.6831V37.7337L43.931 39.2007V36.469H43.8805C43.3746 36.2161 43.0205 35.7102 43.0205 35.1537C43.0205 34.3949 43.6275 33.7879 44.3863 33.7879C44.791 33.7879 45.1451 33.9397 45.3981 34.1926C45.651 34.4455 45.8027 34.7996 45.8027 35.1537C45.8027 35.609 45.5498 36.0643 45.0945 36.3172H44.9428V38.9478L47.1686 37.6831V37.6325C47.1686 37.2278 47.3204 36.7219 47.8262 36.469C48.0286 36.3172 48.2815 36.2667 48.5344 36.2667C49.0403 36.2667 49.4956 36.5196 49.6979 36.9243C49.9003 37.2784 49.9509 37.6325 49.8497 37.9866C49.7485 38.3407 49.5462 38.6442 49.1921 38.796C48.9897 38.9478 48.7368 38.9983 48.5344 38.9983C48.2815 38.9983 48.0286 38.9478 47.8262 38.796L45.4992 40.1113L47.7756 41.4265C48.0792 41.3253 48.3321 41.2748 48.5344 41.2748C48.7874 41.2748 48.9897 41.3253 49.1921 41.4265C49.7991 41.8312 50.052 42.6912 49.6979 43.2982C49.445 43.7029 48.9897 43.9559 48.4839 43.9559C48.2309 43.9559 47.978 43.9053 47.7756 43.7535C47.3709 43.5006 47.118 43.0959 47.118 42.59V42.5394L44.9428 41.3253V43.9559H44.9934C45.4486 44.1582 45.7016 44.6135 45.7016 45.1194C45.7016 45.9287 45.0945 46.5358 44.3357 46.5358ZM7.50852 30.5503C3.66392 30.5503 0.578125 27.4646 0.578125 23.6199V7.12864C0.578125 3.28404 3.66392 0.198242 7.50852 0.198242H53.1378C56.9824 0.198242 60.0682 3.28404 60.0682 7.12864V23.6199C60.0682 27.4646 56.9824 30.5503 53.1378 30.5503H7.50852ZM6.80031 3.23345C4.97918 3.23345 3.51216 4.75106 3.51216 6.67336V24.2776C3.51216 26.1493 4.97918 27.7175 6.80031 27.7175H53.7955C55.6166 27.7175 57.0836 26.1999 57.0836 24.2776V6.67336C57.0836 4.80164 55.6166 3.23345 53.7955 3.23345H6.80031ZM8.16615 22.9623C7.50852 22.9623 6.95207 22.4059 6.95207 21.7482C6.95207 21.0906 7.50852 20.5341 8.16615 20.5341H51.3167C51.9743 20.5341 52.5308 21.0906 52.5308 21.7482C52.5308 22.4059 51.9743 22.9623 51.3167 22.9623H8.16615ZM8.16615 17.853C7.50852 17.853 6.95207 17.2966 6.95207 16.639C6.95207 15.9813 7.50852 15.4249 8.16615 15.4249H51.3167C51.9743 15.4249 52.5308 15.9813 52.5308 16.639C52.5308 17.2966 51.9743 17.853 51.3167 17.853H8.16615Z" fill="#A3283E"/>
</svg>
