<svg width="63" height="56" viewBox="0 0 63 56" fill="none" xmlns="http://www.w3.org/2000/svg">
<path d="M41.8131 35.3007C38.9752 32.9312 35.3981 31.6287 31.7011 31.6187C28.0041 31.6087 24.42 32.8918 21.5693 35.2458V35.3007" stroke="#A3283E" stroke-width="3" stroke-linecap="round" stroke-linejoin="round"/>
<path d="M31.651 41.7881C30.3945 41.7881 29.1662 42.1606 28.1214 42.8587C27.0767 43.5567 26.2624 44.5489 25.7815 45.7098C25.3006 46.8707 25.1748 48.148 25.4199 49.3804C25.665 50.6128 26.2701 51.7448 27.1586 52.6333C28.047 53.5218 29.179 54.1269 30.4114 54.372C31.6438 54.6172 32.9211 54.4914 34.082 54.0105C35.2429 53.5297 36.2351 52.7154 36.9332 51.6706C37.6313 50.6259 38.0039 49.3976 38.0039 48.1411C38.0039 46.4562 37.3345 44.8403 36.1432 43.6489C34.9518 42.4575 33.3359 41.7881 31.651 41.7881Z" stroke="#A3283E" stroke-width="3" stroke-linecap="round" stroke-linejoin="round"/>
<path d="M51.4761 24.3169C45.8953 19.7129 38.886 17.1948 31.6511 17.1948C24.4163 17.1948 17.407 19.7129 11.8262 24.3169" stroke="#A3283E" stroke-width="3" stroke-linecap="round" stroke-linejoin="round"/>
<path d="M61.0014 12.7873C52.7395 5.94337 42.3477 2.19824 31.6194 2.19824C20.891 2.19824 10.4992 5.94337 2.2373 12.7873" stroke="#A3283E" stroke-width="3" stroke-linecap="round" stroke-linejoin="round"/>
</svg>
