<svg width="56" height="56" viewBox="0 0 56 56" fill="none" xmlns="http://www.w3.org/2000/svg">
<path d="M28.1391 20.2798H41.0544C43.9077 20.2798 46.2206 22.5927 46.2206 25.4459C46.2206 28.2992 43.9077 30.6121 41.0544 30.6121H15.2238C12.3706 30.6121 10.0576 28.2992 10.0576 25.4459C10.0576 22.5927 12.3706 20.2798 15.2238 20.2798H17.8068" stroke="#A3283E" stroke-width="3" stroke-linecap="round"/>
<path d="M20.3898 40.9444C20.3898 43.0842 18.6551 44.819 16.5152 44.819C14.3753 44.819 12.6406 43.0842 12.6406 40.9444C12.6406 38.8046 14.3753 37.0698 16.5152 37.0698C18.6551 37.0698 20.3898 38.8046 20.3898 40.9444Z" stroke="#A3283E" stroke-width="3"/>
<path d="M35.8887 26.7373V30.6119" stroke="#A3283E" stroke-width="3" stroke-linecap="round"/>
<path d="M30.7227 40.9443H43.638" stroke="#A3283E" stroke-width="3" stroke-linecap="round"/>
<path d="M13.9326 12.5305L35.8887 2.19824" stroke="#A3283E" stroke-width="3" stroke-linecap="round"/>
<path d="M53.97 33.1948C53.97 42.9361 53.97 47.807 50.9437 50.8331C47.9176 53.8594 43.0467 53.8594 33.3054 53.8594H22.9731C13.2318 53.8594 8.36111 53.8594 5.33484 50.8331C2.30859 47.807 2.30859 42.9361 2.30859 33.1948C2.30859 23.4536 2.30859 18.5828 5.33484 15.5565C8.36111 12.5303 13.2318 12.5303 22.9731 12.5303H33.3054C43.0467 12.5303 47.9176 12.5303 50.9437 15.5565C52.6309 17.2437 53.3774 19.5043 53.7078 22.8625" stroke="#A3283E" stroke-width="3" stroke-linecap="round"/>
</svg>
