<svg width="60" height="54" viewBox="0 0 60 54" fill="none" xmlns="http://www.w3.org/2000/svg">
<path d="M37.4898 23.3099V20.8771C37.4898 16.8525 34.2159 13.5786 30.1913 13.5786C26.1667 13.5786 22.8928 16.8525 22.8928 20.8771V23.3099H20.46V39.1233H39.9226V23.3099H37.4898ZM25.3256 20.8771C25.3256 18.1936 27.5084 16.0114 30.1913 16.0114C32.8742 16.0114 35.0569 18.1936 35.0569 20.8771V23.3099H25.3256V20.8771ZM37.4898 36.6905H22.8928V25.7428H37.4898V36.6905Z" fill="#A3283E"/>
<path d="M35.0565 28.1753H25.3252V30.6081H35.0565V28.1753Z" fill="#A3283E"/>
<path d="M34.0615 31.8247H26.3203V34.2575H34.0615V31.8247Z" fill="#A3283E"/>
<path d="M53.3032 20.8771C52.6815 20.8771 52.0769 20.9821 51.4895 21.1679L45.9358 10.6762C46.3483 10.2876 46.7122 9.84288 47.0095 9.32946C48.6863 6.42979 47.6908 2.69976 44.7911 1.0165L44.7875 1.01413C43.3769 0.201599 41.7352 -0.013412 40.1636 0.411858C38.5962 0.834753 37.2895 1.84328 36.4894 3.24026C36.2738 3.60673 36.1084 3.99791 35.9763 4.40322H24.4069C24.2755 3.99993 24.1109 3.61065 23.897 3.24501C23.0905 1.84091 21.7849 0.834753 20.2199 0.411858C18.6471 -0.013412 17.0054 0.200411 15.5912 1.0165C12.6921 2.69976 11.6967 6.42979 13.374 9.33184C13.6725 9.84632 14.0375 10.2919 14.4464 10.6775L8.89344 21.1679C8.30661 20.9822 7.70161 20.8771 7.07915 20.8771C3.72569 20.8771 0.99707 23.6057 0.99707 26.9592C0.99707 30.3126 3.72569 33.0412 7.07915 33.0412C7.70007 33.0412 8.30459 32.9362 8.89308 32.7501L14.447 43.2421C14.0345 43.6308 13.6706 44.0756 13.3733 44.5889C11.6965 47.4886 12.692 51.2186 15.5952 52.9042C16.5313 53.4435 17.5701 53.7191 18.622 53.7191C19.1548 53.7191 19.6917 53.649 20.2198 53.5065C21.7866 53.0824 23.0933 52.0751 23.8934 50.6781C24.109 50.3116 24.2744 49.9204 24.4065 49.5151H35.9757C36.1069 49.9189 36.271 50.3071 36.4828 50.6674C37.2894 52.0751 38.5961 53.0836 40.1635 53.5065C40.6909 53.649 41.2267 53.7191 41.7595 53.7191C42.8125 53.7191 43.852 53.4435 44.791 52.9018C47.6907 51.2186 48.6861 47.4886 47.0088 44.5865C46.7118 44.0744 46.3482 43.6302 45.9357 43.242L51.4894 32.7504C52.0769 32.9362 52.6815 33.0412 53.3029 33.0412C56.6564 33.0412 59.385 30.3126 59.385 26.9592C59.385 23.6057 56.6566 20.8771 53.3032 20.8771ZM38.1348 5.78951C38.2019 5.31197 38.354 4.86888 38.5939 4.46024C39.0768 3.61801 39.8596 3.01456 40.7981 2.76035C41.1153 2.67482 41.4366 2.63324 41.7567 2.63324C42.3869 2.63324 43.0094 2.79717 43.5707 3.12028C45.3115 4.13238 45.9096 6.37158 44.9041 8.11067C44.6095 8.62029 44.221 9.02536 43.7203 9.33422C42.5722 10.085 41.1147 10.1265 39.9244 9.44469C38.6302 8.69512 37.9275 7.26013 38.1348 5.78951ZM16.8095 3.12147C17.372 2.79836 17.995 2.63324 18.6264 2.63324C18.9466 2.63324 19.2685 2.67482 19.5857 2.76035C20.5241 3.01456 21.3063 3.61801 21.7892 4.46024L21.7958 4.47093C22.0292 4.86888 22.1812 5.31197 22.2483 5.78951C22.4556 7.26013 21.753 8.69512 20.4623 9.44232C19.2668 10.1288 17.812 10.0873 16.6342 9.31545L16.6331 9.31474C16.1619 9.02501 15.7735 8.62005 15.4797 8.11305C14.4729 6.37158 15.0716 4.13119 16.8095 3.12147ZM8.86231 30.1403C8.29758 30.4505 7.69745 30.6084 7.07938 30.6084C5.06707 30.6084 3.43014 28.9715 3.43014 26.9592C3.43014 24.9469 5.06707 23.3099 7.07938 23.3099C7.70007 23.3099 8.30055 23.4679 8.85946 23.7768C10.0123 24.4182 10.7286 25.6382 10.7286 26.9592C10.7286 28.2775 10.0134 29.4957 8.86231 30.1403ZM22.2483 48.1288C22.1812 48.6064 22.0292 49.0495 21.7892 49.4581C21.3063 50.3003 20.5241 50.9038 19.5857 51.158C18.6419 51.411 17.6559 51.2851 16.8137 50.7992C15.0716 49.7872 14.4729 47.5468 15.4791 45.8077C15.7737 45.2981 16.1621 44.893 16.6628 44.5841C16.9361 44.405 17.2289 44.2719 17.5295 44.1735C17.5505 44.1667 17.5707 44.1565 17.5919 44.1499C17.8798 44.0616 18.1767 44.0162 18.4746 44.0016C18.51 43.9999 18.5453 43.9946 18.5808 43.994C18.7842 43.9901 18.9858 44.029 19.1878 44.0597C19.3091 44.0782 19.4321 44.0763 19.5516 44.1073C19.8437 44.1828 20.1278 44.2999 20.4002 44.4504C20.4193 44.4609 20.4407 44.4639 20.4597 44.4748C20.4804 44.4868 20.4978 44.5025 20.5183 44.5149C20.6571 44.599 20.7919 44.6876 20.9161 44.7868C20.9824 44.8396 21.0389 44.9012 21.1008 44.958C21.1722 45.0234 21.2482 45.0851 21.3137 45.1555C21.9138 45.8008 22.258 46.6429 22.2797 47.5306C22.2801 47.5475 22.2839 47.5639 22.284 47.5807C22.286 47.7621 22.2742 47.9452 22.2483 48.1288ZM43.5724 50.7969C42.7267 51.2839 41.7395 51.4122 40.7981 51.158C39.8596 50.9038 39.0768 50.3003 38.5874 49.4474C38.354 49.0495 38.2019 48.6064 38.1348 48.1288C37.9275 46.6594 38.6302 45.2244 39.9202 44.476C40.2107 44.3086 40.5176 44.1883 40.831 44.1072C40.9428 44.0783 41.0578 44.0807 41.171 44.0628C41.3812 44.0294 41.5911 43.9898 41.8029 43.994C41.8361 43.9946 41.8691 43.9996 41.9022 44.0012C42.2029 44.0154 42.5024 44.0612 42.7928 44.1505C42.8115 44.1562 42.8292 44.1653 42.8477 44.1713C43.1505 44.2698 43.4451 44.404 43.7203 44.5842L43.75 44.6037C44.2213 44.8935 44.6096 45.2984 44.9035 45.8054C45.9102 47.5468 45.3115 49.7871 43.5724 50.7969ZM43.8694 41.9458C43.7986 41.9189 43.7256 41.9016 43.6542 41.8776C43.5704 41.8493 43.4869 41.8222 43.4022 41.7978C43.2296 41.748 43.0556 41.708 42.8801 41.6739C42.8061 41.6595 42.7329 41.6413 42.6585 41.6298C42.4107 41.5913 42.1617 41.5652 41.9114 41.5578C41.8834 41.557 41.8553 41.5603 41.8272 41.5598C41.6041 41.5564 41.3811 41.5657 41.1585 41.587C41.0767 41.5949 40.9956 41.6087 40.9139 41.6199C40.7425 41.6436 40.5721 41.6733 40.4025 41.7118C40.3147 41.7316 40.2278 41.7531 40.1408 41.777C39.9695 41.8239 39.8006 41.8802 39.6326 41.9426C39.5573 41.9706 39.4815 41.9952 39.4069 42.0263C39.1682 42.1259 38.9326 42.2369 38.7038 42.3686C38.4565 42.5121 38.2258 42.6742 38.0052 42.8462C37.9352 42.9007 37.8713 42.9604 37.8042 43.0176C37.6574 43.1426 37.5159 43.272 37.3829 43.4089C37.3144 43.4793 37.249 43.5509 37.1844 43.6242C37.0606 43.7645 36.9452 43.91 36.8357 44.0601C36.7826 44.1328 36.7276 44.2038 36.6778 44.2787C36.5506 44.4702 36.436 44.6686 36.3317 44.8727C36.3124 44.9103 36.2886 44.9454 36.2701 44.9835C36.1517 45.2279 36.0522 45.481 35.9676 45.7397C35.9444 45.8105 35.9289 45.8833 35.9084 45.9551C35.8535 46.1468 35.8058 46.3404 35.77 46.5378C35.7532 46.6303 35.7409 46.7233 35.7283 46.817C35.7165 46.9058 35.6967 46.9928 35.6888 47.0824H24.6941C24.6863 46.993 24.6663 46.9061 24.6546 46.8174C24.642 46.7234 24.6296 46.6301 24.6128 46.5372C24.5771 46.3408 24.5297 46.1482 24.4751 45.9575C24.4542 45.8846 24.4384 45.8106 24.415 45.7388C24.3307 45.4813 24.2317 45.2296 24.1137 44.9862C24.0921 44.9413 24.0639 44.8999 24.0411 44.8556C23.94 44.6594 23.83 44.4682 23.7078 44.2837C23.6545 44.2033 23.5954 44.127 23.5383 44.0491C23.433 43.9057 23.3228 43.7665 23.2046 43.6321C23.1356 43.5536 23.0654 43.477 22.9921 43.4019C22.8647 43.2714 22.7296 43.1481 22.5896 43.0282C22.5169 42.966 22.4476 42.9016 22.3715 42.8424C22.1584 42.6766 21.9351 42.5209 21.6969 42.3814C21.6903 42.3775 21.6848 42.3725 21.6783 42.3686L21.6741 42.3662C21.4439 42.2337 21.2067 42.1222 20.9662 42.0222C20.8973 41.9935 20.8274 41.9708 20.7579 41.9448C20.5841 41.88 20.4091 41.8219 20.2318 41.7735C20.1475 41.7505 20.0634 41.7297 19.9785 41.7105C19.8105 41.6723 19.642 41.6429 19.4722 41.6195C19.3854 41.6074 19.2992 41.5929 19.2122 41.5845C19.0241 41.5668 18.8358 41.5611 18.6474 41.5611C18.5448 41.561 18.4429 41.5621 18.3405 41.5671C18.1448 41.5772 17.9496 41.5937 17.7554 41.6229C17.6348 41.6409 17.5162 41.6691 17.3967 41.6944C17.276 41.7202 17.1559 41.7465 17.0365 41.7796C16.9112 41.8144 16.7879 41.8543 16.6646 41.8976C16.6146 41.915 16.5634 41.9267 16.5137 41.9454L11.028 31.5821C11.0951 31.5249 11.1546 31.4603 11.219 31.4003C11.2833 31.3404 11.3478 31.2817 11.4092 31.2194C11.5376 31.0889 11.6576 30.9517 11.7732 30.8108C11.8137 30.7615 11.8577 30.7154 11.8966 30.6651C12.0454 30.4717 12.1825 30.2702 12.3069 30.0608C12.3365 30.0109 12.3602 29.9579 12.3885 29.9073C12.4795 29.7435 12.565 29.577 12.6406 29.4053C12.6753 29.3264 12.7052 29.2461 12.7365 29.1658C12.7958 29.0141 12.8496 28.8608 12.8967 28.7043C12.9226 28.6183 12.9473 28.5324 12.9694 28.4451C13.0111 28.2801 13.044 28.1129 13.0718 27.9438C13.0847 27.8658 13.1008 27.7887 13.1107 27.7098C13.1417 27.4621 13.1615 27.2121 13.1615 26.9588C13.1615 26.7052 13.1417 26.4549 13.1107 26.2069C13.1009 26.1281 13.0847 26.0514 13.0719 25.9733C13.044 25.8039 13.0112 25.6364 12.9694 25.4711C12.9474 25.3842 12.9229 25.2987 12.8972 25.2132C12.8498 25.0552 12.7953 24.9004 12.7355 24.7474C12.7047 24.6688 12.6756 24.5899 12.6415 24.5127C12.5631 24.3345 12.4747 24.1615 12.3798 23.992C12.3551 23.9479 12.3347 23.9019 12.3089 23.8585C12.1829 23.646 12.0435 23.4418 11.8923 23.2458C11.86 23.2038 11.8233 23.1657 11.7899 23.1246C11.6667 22.9733 11.5378 22.8272 11.4002 22.6878C11.3461 22.6331 11.2893 22.5815 11.233 22.5288C11.1644 22.4644 11.1004 22.3956 11.0286 22.3342L16.5137 11.9721C16.6052 12.0068 16.6994 12.0303 16.7921 12.0603C16.8688 12.0852 16.9446 12.1115 17.022 12.1333C17.2594 12.1999 17.499 12.2546 17.7413 12.2915C17.7575 12.294 17.7734 12.2988 17.7895 12.3011C18.0485 12.3384 18.3092 12.3542 18.5705 12.3574C18.5959 12.3578 18.6211 12.3629 18.6466 12.3629C18.7064 12.3629 18.7658 12.353 18.8255 12.3513C18.9818 12.3466 19.1377 12.3377 19.2935 12.3208C19.3879 12.3106 19.4814 12.2974 19.5753 12.2828C19.7255 12.2593 19.8744 12.2294 20.0232 12.1945C20.1162 12.1726 20.2088 12.1515 20.301 12.1252C20.4573 12.0805 20.6111 12.0264 20.7645 11.9689C20.844 11.9391 20.9242 11.9138 21.0028 11.8805C21.2319 11.7838 21.4577 11.6755 21.6774 11.5492C21.9254 11.4057 22.1564 11.2434 22.3775 11.0713C22.4466 11.0175 22.5096 10.9587 22.576 10.9023C22.7239 10.7766 22.8662 10.6466 23.0001 10.5089C23.0681 10.439 23.1335 10.3675 23.198 10.2945C23.3216 10.1545 23.4368 10.0092 23.5465 9.85927C23.5999 9.7861 23.6553 9.71482 23.7054 9.63939C23.8312 9.44992 23.9447 9.25368 24.0481 9.05173C24.0686 9.01182 24.0938 8.9744 24.1134 8.93401C24.2314 8.69025 24.3307 8.43806 24.4152 8.18017C24.439 8.10759 24.4549 8.03275 24.4759 7.9591C24.5301 7.76939 24.5772 7.57825 24.6126 7.38308C24.6299 7.28841 24.6425 7.19337 24.6552 7.09775C24.6668 7.00996 24.6864 6.92408 24.6942 6.83546H35.6889C35.6967 6.9236 35.7163 7.00913 35.7279 7.09644C35.7407 7.19314 35.7535 7.28912 35.7709 7.38474C35.806 7.57742 35.8527 7.7663 35.9062 7.95387C35.9278 8.02978 35.9443 8.10699 35.9688 8.18183C36.053 8.43877 36.1518 8.6899 36.2694 8.9327C36.2907 8.97678 36.3183 9.01752 36.3407 9.06112C36.4425 9.2589 36.5535 9.45146 36.6769 9.63737C36.7284 9.71494 36.7853 9.78835 36.8406 9.86378C36.9488 10.0114 37.0622 10.1547 37.1841 10.2927C37.2501 10.3675 37.3169 10.4406 37.3868 10.5124C37.5191 10.6483 37.6596 10.7763 37.8055 10.9006C37.8735 10.9584 37.938 11.0187 38.0088 11.0738C38.2297 11.2459 38.4606 11.4081 38.7086 11.5516C38.9295 11.6784 39.1566 11.7869 39.3869 11.8839C39.4612 11.9153 39.5371 11.9393 39.6124 11.9674C39.7697 12.0265 39.9273 12.082 40.0875 12.1275C40.1803 12.1538 40.2734 12.1751 40.367 12.1971C40.511 12.2306 40.6553 12.2597 40.8008 12.2825C40.9043 12.2989 41.0072 12.3132 41.1111 12.3242C41.2457 12.3381 41.38 12.3454 41.5149 12.3504C41.5913 12.3533 41.6674 12.3653 41.7437 12.3653C41.777 12.3653 41.8101 12.3586 41.8434 12.3581C42.0378 12.3546 42.2314 12.3389 42.4247 12.3166C42.5672 12.3003 42.7076 12.2763 42.8488 12.2498C43.0033 12.2207 43.1574 12.1904 43.3098 12.1492C43.428 12.1172 43.5436 12.0778 43.66 12.0385C43.7295 12.015 43.8006 11.9982 43.8694 11.9722L49.3546 22.3343C49.2867 22.3921 49.2265 22.4574 49.1615 22.5181C49.0986 22.5767 49.0353 22.6344 48.9752 22.6954C48.8454 22.8272 48.7243 22.9656 48.6075 23.1079C48.5679 23.1561 48.5248 23.2011 48.4868 23.2505C48.3374 23.4445 48.1998 23.6467 48.0751 23.8568C48.047 23.9041 48.0245 23.9544 47.9977 24.0024C47.905 24.1688 47.8183 24.3381 47.7414 24.5127C47.7073 24.5901 47.678 24.6692 47.6471 24.7481C47.5872 24.9011 47.5329 25.056 47.4854 25.2139C47.4597 25.2993 47.4353 25.3845 47.4133 25.4711C47.3715 25.6363 47.3387 25.8038 47.3108 25.9731C47.2978 26.0514 47.2817 26.1285 47.2718 26.2076C47.2409 26.4554 47.2211 26.7054 47.2211 26.9588C47.2211 27.2121 47.2408 27.4621 47.2718 27.7097C47.2817 27.7887 47.2978 27.8657 47.3108 27.9439C47.3387 28.1131 47.3715 28.2806 47.4133 28.4458C47.4352 28.5322 47.4596 28.6172 47.4853 28.7023C47.533 28.861 47.5876 29.0166 47.6479 29.1705C47.6784 29.2483 47.7073 29.3262 47.7409 29.4027C47.8191 29.5804 47.9072 29.7526 48.002 29.9219C48.0272 29.9668 48.0481 30.014 48.0745 30.0583C48.2002 30.2701 48.339 30.4736 48.4895 30.669C48.5241 30.7139 48.5634 30.7548 48.5993 30.7987C48.7198 30.9463 48.8456 31.0892 48.9799 31.2253C49.0375 31.2836 49.098 31.3387 49.1581 31.3948C49.2244 31.4567 49.2859 31.5231 49.3552 31.5823L43.8694 41.9458ZM53.3032 30.6084C52.6843 30.6084 52.0838 30.4504 51.5243 30.1428C50.3708 29.4989 49.6539 28.2789 49.6539 26.9592C49.6539 25.6382 50.3702 24.4182 51.5237 23.7768L51.5268 23.775C52.0877 23.4674 52.6851 23.3099 53.3032 23.3099C55.3155 23.3099 56.9524 24.9469 56.9524 26.9592C56.9524 28.9715 55.3155 30.6084 53.3032 30.6084Z" fill="#A3283E"/>
</svg>
