<svg width="53" height="54" viewBox="0 0 53 54" fill="none" xmlns="http://www.w3.org/2000/svg">
<path d="M46.0024 16.4776C45.8735 16.1501 45.7238 15.8447 45.5497 15.5602C45.2881 15.135 44.9738 14.7556 44.5693 14.4576C44.367 14.3094 44.1409 14.1835 43.8905 14.0945C43.6415 14.0047 43.3687 13.9536 43.0916 13.9536C42.7633 13.9536 42.4424 14.0263 42.1572 14.1471C41.9067 14.2545 41.6821 14.3968 41.4828 14.5599C41.1331 14.8474 40.8559 15.1963 40.6203 15.584C40.269 16.1665 40.0118 16.8422 39.834 17.5922C39.6553 18.3391 39.5605 19.1617 39.5605 20.0258C39.5605 20.7787 39.6332 21.4975 39.7688 22.1644C39.8704 22.6668 40.0081 23.1374 40.1815 23.5723C40.3105 23.8999 40.4609 24.2067 40.6343 24.4904C40.8958 24.9151 41.2093 25.2945 41.6146 25.5924C41.8162 25.7407 42.043 25.8666 42.2934 25.9569C42.5424 26.0459 42.8151 26.0962 43.0915 26.0962C43.4205 26.097 43.7421 26.0251 44.0266 25.9035C44.2771 25.7969 44.5008 25.6538 44.701 25.4901C45.0508 25.204 45.3286 24.8543 45.5636 24.4667C45.9149 23.8843 46.172 23.2077 46.3506 22.4593C46.5277 21.7109 46.6233 20.8898 46.6233 20.0258C46.6233 19.2729 46.5507 18.5526 46.4143 17.8856C46.3137 17.3846 46.1759 16.9133 46.0024 16.4776ZM44.1099 21.696C44.0329 22.0739 43.932 22.4148 43.8165 22.7046C43.7305 22.9217 43.6364 23.1099 43.543 23.2618C43.4037 23.4908 43.2651 23.6346 43.18 23.6939C43.1377 23.725 43.1095 23.7368 43.0977 23.7413L43.0918 23.7427C43.0889 23.742 43.0741 23.7397 43.0385 23.7175C42.974 23.679 42.8495 23.5709 42.7161 23.3767C42.513 23.0862 42.3003 22.6164 42.1529 22.0348C42.0032 21.4545 41.9128 20.7639 41.9128 20.0258C41.9128 19.4256 41.972 18.8579 42.0744 18.3548C42.1514 17.9775 42.2529 17.636 42.3678 17.3455C42.4538 17.1283 42.5479 16.9416 42.6406 16.7889C42.7799 16.5606 42.9192 16.4169 43.0037 16.3562C43.0467 16.325 43.0742 16.3131 43.086 16.3094L43.0919 16.3072C43.0964 16.308 43.1104 16.3117 43.1452 16.3332C43.2104 16.3709 43.3349 16.4792 43.469 16.6748C43.6713 16.9638 43.8839 17.4351 44.0315 18.0153C44.1811 18.597 44.2716 19.2876 44.2716 20.0257C44.2714 20.6245 44.2122 21.192 44.1099 21.696Z" fill="#A3283E"/>
<path d="M51.8555 12.7087C51.5109 11.0147 51.0485 9.43774 50.4839 8.01501C50.0607 6.94793 49.5783 5.96674 49.0403 5.08792C48.2326 3.77026 47.2997 2.6758 46.2199 1.88359C45.6805 1.48862 45.1024 1.17072 44.4903 0.951349C43.8782 0.732084 43.2313 0.614258 42.5733 0.614258H10.8066V0.615814C10.8066 0.615814 10.8066 0.615814 10.8059 0.615814V0.614258C10.7993 0.614258 10.7919 0.614984 10.7844 0.614984C10.7785 0.614984 10.7712 0.615814 10.7644 0.615814C9.99896 0.621 9.25051 0.786226 8.55248 1.08338C7.93078 1.3487 7.34756 1.714 6.8052 2.15865C5.85513 2.93894 5.02298 3.95716 4.29455 5.16135C3.20362 6.96712 2.34098 9.19617 1.74231 11.7172C1.14426 14.2381 0.812353 17.0526 0.811523 20.0257V53.719H2.07276C2.40923 53.719 2.72786 53.6835 3.02284 53.6123C3.27996 53.5523 3.51862 53.4656 3.73208 53.3648C4.1062 53.187 4.399 52.9692 4.62791 52.7839C4.80133 52.6431 4.94218 52.5186 5.06219 52.4216C5.24307 52.2741 5.37044 52.1911 5.49791 52.1355C5.5617 52.1081 5.62985 52.0859 5.71573 52.0681C5.80099 52.0518 5.90699 52.0384 6.04328 52.0384C6.20332 52.0384 6.31886 52.0556 6.41231 52.077C6.49384 52.0963 6.55897 52.12 6.62421 52.1511C6.73685 52.2045 6.85468 52.2837 7.01399 52.4128C7.13255 52.5083 7.27029 52.6306 7.44153 52.77C7.69575 52.9774 8.03066 53.2257 8.4694 53.4154C8.68721 53.5103 8.9296 53.588 9.18963 53.6407C9.44903 53.6926 9.72462 53.7192 10.0151 53.7192C10.3516 53.7192 10.6702 53.6838 10.9652 53.6125C11.2231 53.5525 11.4617 53.4658 11.6751 53.365C12.0493 53.1872 12.342 52.9694 12.5718 52.7841C12.7437 52.6433 12.8846 52.5188 13.0046 52.4218C13.1855 52.2743 13.3128 52.1913 13.4403 52.1357C13.5048 52.1083 13.5721 52.0862 13.6581 52.0683C13.7441 52.052 13.8494 52.0387 13.9864 52.0387C14.1457 52.0387 14.2612 52.0558 14.3547 52.0772C14.4362 52.0965 14.5013 52.1202 14.5667 52.1513C14.6793 52.2047 14.7963 52.2839 14.9557 52.413C15.0743 52.5085 15.2128 52.6308 15.3833 52.7702C15.6382 52.9769 15.9724 53.2259 16.4111 53.4156C16.6298 53.5105 16.8714 53.5882 17.1308 53.6409C17.3901 53.6928 17.6672 53.7194 17.957 53.7194C18.2941 53.7194 18.612 53.684 18.907 53.6127C19.1641 53.5528 19.4035 53.466 19.6162 53.3652C19.9912 53.1875 20.2831 52.9696 20.5128 52.7843C20.6862 52.6435 20.8262 52.519 20.9463 52.422C21.1279 52.2745 21.2547 52.1915 21.382 52.1359C21.4466 52.1086 21.5133 52.0864 21.5992 52.0685C21.6851 52.0522 21.7904 52.0389 21.9282 52.0389C22.0875 52.0389 22.2039 52.056 22.2965 52.0774C22.3781 52.0967 22.4426 52.1204 22.5084 52.1515C22.6211 52.2049 22.7389 52.2842 22.8975 52.4132C23.0161 52.5087 23.1539 52.631 23.325 52.7704C23.58 52.9771 23.9142 53.2261 24.3529 53.4158C24.5707 53.5107 24.8138 53.5884 25.0731 53.6411C25.3324 53.693 25.6081 53.7196 25.8986 53.7196C26.235 53.7196 26.5537 53.6842 26.8486 53.6129C27.1066 53.553 27.3451 53.4663 27.5586 53.364C27.9328 53.1861 28.2248 52.9698 28.4552 52.7845C28.6272 52.6438 28.768 52.5192 28.8872 52.4222C29.0689 52.2747 29.1955 52.1917 29.3231 52.1361C29.3875 52.1088 29.4542 52.0866 29.5409 52.0687C29.6261 52.0524 29.7313 52.0391 29.8692 52.0391C30.0285 52.0391 30.1448 52.0562 30.2382 52.0776C30.319 52.0969 30.3842 52.1206 30.4488 52.1517C30.5614 52.2051 30.6799 52.2836 30.8384 52.4134C30.9571 52.5089 31.0948 52.6305 31.2661 52.7706C31.5203 52.9773 31.8545 53.2263 32.2939 53.4161C32.5117 53.511 32.7534 53.5886 33.0127 53.6413C33.272 53.6932 33.5492 53.7198 33.8389 53.7198H35.0996V39.4363H42.5736C43.3539 39.4371 44.1172 39.2696 44.8271 38.9665C45.4488 38.7027 46.0313 38.3367 46.5744 37.8912C47.5245 37.1125 48.3559 36.0927 49.0851 34.8893C50.1759 33.0827 51.0386 30.8551 51.638 28.3341C52.236 25.8132 52.568 22.9972 52.568 20.0257C52.5677 17.4373 52.3157 14.9688 51.8555 12.7087ZM33.509 11.7172C32.9102 14.2381 32.5791 17.0526 32.5782 20.0257V20.6133H30.4818V21.7893H32.5782V50.5799C32.5353 50.5445 32.4908 50.5073 32.4419 50.4673C32.1878 50.2598 31.8535 50.0108 31.4149 49.8211C31.1963 49.727 30.9548 49.6492 30.6947 49.5974C30.4354 49.5441 30.1589 49.5173 29.8692 49.518C29.5327 49.5173 29.2141 49.5536 28.9191 49.624C28.6612 49.6847 28.4226 49.7714 28.2092 49.873C27.835 50.05 27.5423 50.2671 27.3133 50.4532C27.1407 50.5932 26.9998 50.7178 26.8797 50.8141C26.699 50.9623 26.5715 51.0469 26.444 51.1016C26.3802 51.1299 26.3129 51.152 26.2269 51.1683C26.1417 51.1862 26.0357 51.198 25.8986 51.198C25.7385 51.198 25.623 51.1817 25.5303 51.1594C25.4481 51.1401 25.3837 51.1165 25.3183 51.086C25.2057 51.0318 25.0879 50.9533 24.9293 50.8244C24.8107 50.7288 24.6722 50.6066 24.501 50.4672C24.2468 50.2597 23.9126 50.0107 23.474 49.821C23.2553 49.7269 23.013 49.6491 22.7536 49.5973C22.4942 49.544 22.2179 49.5172 21.9281 49.5172C21.591 49.5172 21.2731 49.5535 20.9782 49.624C20.7203 49.6847 20.4817 49.7714 20.2682 49.873C19.8932 50.05 19.6013 50.2671 19.3716 50.4532C19.199 50.5932 19.0589 50.717 18.9389 50.8141C18.7581 50.9623 18.6307 51.0469 18.5032 51.1016C18.4387 51.1299 18.3713 51.152 18.2854 51.1683C18.1994 51.1862 18.0941 51.198 17.9571 51.198C17.7978 51.198 17.682 51.1817 17.5888 51.1594C17.5073 51.1401 17.442 51.1165 17.3768 51.086C17.2641 51.0318 17.1463 50.9533 16.9877 50.8244C16.8692 50.7288 16.7305 50.6066 16.5601 50.4672C16.3053 50.2597 15.9711 50.0107 15.5316 49.821C15.3138 49.7269 15.0721 49.6491 14.8128 49.5973C14.5527 49.544 14.2764 49.5172 13.9866 49.5172C13.6495 49.5172 13.3309 49.5535 13.0366 49.624C12.7787 49.6847 12.5401 49.7714 12.3274 49.873C11.9524 50.05 11.6605 50.2671 11.4307 50.4532C11.2573 50.5932 11.1173 50.717 10.9972 50.8141C10.8155 50.9623 10.6889 51.0469 10.5622 51.1016C10.497 51.1299 10.4295 51.152 10.3443 51.1683C10.2584 51.1862 10.1532 51.198 10.0153 51.198C9.85603 51.198 9.73966 51.1817 9.64631 51.1594C9.56561 51.1401 9.49955 51.1165 9.43513 51.086C9.32177 51.0318 9.20467 50.9533 9.04535 50.8244C8.9268 50.7288 8.78813 50.6066 8.61772 50.4672C8.36287 50.2597 8.02869 50.0107 7.58985 49.821C7.37131 49.7269 7.12975 49.6491 6.86961 49.5973C6.61031 49.544 6.3339 49.5172 6.04338 49.5172C5.70691 49.5172 5.38828 49.5535 5.09413 49.624C4.83628 49.6847 4.59762 49.7714 4.38417 49.873C4.00994 50.05 3.71725 50.2671 3.48761 50.4532C3.43201 50.4977 3.38161 50.5399 3.33275 50.5814V21.7894H4.72582V20.6134H3.33255V20.0258C3.33255 17.6011 3.56965 15.2958 3.99356 13.2112C4.31146 11.6491 4.73453 10.2115 5.23851 8.94507C5.61491 7.99582 6.03736 7.1421 6.48865 6.40403C7.16522 5.29692 7.91211 4.45512 8.64873 3.91858C9.01631 3.64735 9.38089 3.45329 9.7381 3.32582C10.0953 3.19834 10.4443 3.13611 10.8023 3.13611H37.5514C37.0112 3.72898 36.5163 4.40917 36.0612 5.16135C34.9702 6.96712 34.1077 9.19617 33.509 11.7172ZM35.0993 36.9153V33.0523C35.4104 33.7304 35.744 34.3715 36.1063 34.9634C36.5502 35.6867 37.0326 36.3387 37.555 36.9153H35.0993ZM49.3856 26.8388C49.0677 28.4009 48.6446 29.8385 48.1415 31.1057C47.7642 32.0557 47.3419 32.9093 46.8906 33.6459C46.214 34.7546 45.4678 35.5949 44.7312 36.1329C44.3629 36.4026 43.9983 36.5968 43.6404 36.7257C43.2826 36.8532 42.932 36.9154 42.5733 36.9154C42.1473 36.914 41.733 36.828 41.3062 36.6472C40.9334 36.4886 40.5517 36.2552 40.1694 35.9417C39.4996 35.3949 38.8304 34.5975 38.2182 33.5837C37.2978 32.0661 36.5094 30.0668 35.9618 27.7517C35.412 25.4368 35.0993 22.809 35.0993 20.0257C35.0993 17.601 35.3364 15.2957 35.7603 13.2111C36.0789 11.649 36.502 10.2114 37.0052 8.94496C37.3816 7.99572 37.8041 7.14199 38.2561 6.40392C38.9326 5.29681 39.6789 4.45502 40.4154 3.91847C40.7837 3.6488 41.1476 3.45318 41.5048 3.32571C41.8635 3.19679 42.2132 3.13601 42.5733 3.13601C42.9987 3.13601 43.4128 3.22199 43.8398 3.4035C44.2133 3.56282 44.5942 3.79484 44.9765 4.10818C45.6465 4.65655 46.3163 5.45239 46.9283 6.46615C47.848 7.98524 48.6364 9.98455 49.1849 12.2988C49.734 14.613 50.0474 17.2414 50.0467 20.0255C50.0467 22.4496 49.8095 24.7549 49.3856 26.8388Z" fill="#A3283E"/>
<path d="M9.72953 20.6133H7.12988V21.7893H9.72953V20.6133Z" fill="#A3283E"/>
<path d="M27.9256 20.6133H25.3262V21.7893H27.9256V20.6133Z" fill="#A3283E"/>
<path d="M15.7949 20.6133H13.1953V21.7893H15.7949V20.6133Z" fill="#A3283E"/>
<path d="M21.8613 20.6133H19.2617V21.7893H21.8613V20.6133Z" fill="#A3283E"/>
</svg>
