<svg width="37" height="54" viewBox="0 0 37 54" fill="none" xmlns="http://www.w3.org/2000/svg">
<path d="M18.1135 0.614258C9.75769 0.614258 3.24395 8.85807 3.24395 18.6702C3.24395 22.3419 4.1567 25.6942 5.70009 28.5279C5.48849 28.727 5.37232 29.0009 5.36818 29.2913V30.3534H3.24395C1.49728 30.3534 0.0576172 31.793 0.0576172 33.5397C0.0576172 33.7555 0.082511 33.9671 0.123999 34.1704C0.128148 34.1787 0.119851 34.1952 0.123999 34.2035C0.148893 34.3114 0.190381 34.4317 0.223572 34.5355C0.248466 34.6143 0.289954 34.6931 0.323145 34.7678C0.372932 34.8881 0.422718 34.9877 0.4891 35.0997C0.617715 35.3237 0.746331 35.5436 0.920583 35.7303C0.928881 35.7428 0.941327 35.7511 0.953774 35.7635C0.966221 35.776 0.974518 35.7843 0.986965 35.7967C1.09069 35.8963 1.20271 35.9751 1.31888 36.0622C1.45164 36.166 1.601 36.2448 1.75036 36.3278C1.85823 36.3859 1.97025 36.4481 2.08227 36.4937C2.11546 36.5062 2.14865 36.5145 2.18184 36.5269V36.7261C2.18184 41.4599 5.04042 45.5507 9.11876 47.3804C8.986 47.5339 8.84908 47.6832 8.72047 47.8782C8.07739 48.8615 7.4924 50.4049 7.4924 52.6577C7.4924 53.2427 7.96952 53.7198 8.55451 53.7198H27.6725C28.2575 53.7198 28.7346 53.2427 28.7346 52.6577C28.7346 50.4049 28.1496 48.8615 27.5066 47.8782C27.378 47.6832 27.241 47.5339 27.1083 47.3804C31.1866 45.5507 34.0452 41.4599 34.0452 36.7261V36.5269C34.0784 36.5145 34.1116 36.5062 34.1448 36.4937C34.2609 36.4481 34.3647 36.39 34.4767 36.3278C34.626 36.2448 34.7754 36.166 34.9082 36.0622C35.0368 35.9668 35.1612 35.8797 35.2733 35.7635C35.2857 35.7511 35.294 35.7428 35.3065 35.7303C35.4807 35.5436 35.6093 35.3237 35.7379 35.0997C35.8043 34.9877 35.8541 34.8881 35.9039 34.7678C35.9371 34.6931 35.9786 34.6143 36.0035 34.5355C36.0408 34.4234 36.0781 34.2907 36.103 34.1704C36.1445 33.9671 36.1694 33.7555 36.1694 33.5397C36.1694 31.793 34.7298 30.3534 32.9831 30.3534H30.8589V29.2913C30.8547 29.0009 30.7385 28.727 30.527 28.5279C32.0703 25.6942 32.9831 22.3419 32.9831 18.6702C32.9831 8.85807 26.4694 0.614258 18.1135 0.614258ZM18.1135 2.73848C25.0546 2.73848 30.8589 9.79157 30.8589 18.6702C30.8589 22.3004 29.8507 25.5614 28.2368 28.2292H26.6104C26.5772 28.2292 26.544 28.2292 26.5108 28.2292C25.9632 28.279 25.5442 28.7395 25.5483 29.2913V30.3534H10.6787V29.2913C10.6787 28.7063 10.2016 28.2292 9.61662 28.2292H7.99026C6.37635 25.5614 5.36818 22.3004 5.36818 18.6702C5.36818 9.79157 11.1725 2.73848 18.1135 2.73848ZM18.1135 30.3534C20.578 30.3534 22.7644 28.9303 24.2539 26.802C25.7433 24.6736 26.6104 21.8026 26.6104 18.6702C26.6104 15.5378 25.7433 12.6667 24.2539 10.5384C22.7644 8.40999 20.578 6.98693 18.1135 6.98693C15.6491 6.98693 13.4626 8.40999 11.9732 10.5384C10.4837 12.6667 9.61662 15.5378 9.61662 18.6702C9.61662 21.8026 10.4837 24.6736 11.9732 26.802C13.4626 28.9303 15.6491 30.3534 18.1135 30.3534ZM18.1135 9.11115C19.7565 9.11115 21.2957 10.0529 22.4947 11.7664C23.6938 13.4799 24.4862 15.9361 24.4862 18.6702C24.4862 21.4043 23.6938 23.8604 22.4947 25.5739C21.2957 27.2874 19.7565 28.2292 18.1135 28.2292C16.4706 28.2292 14.9313 27.2874 13.7323 25.5739C12.5333 23.8604 11.7408 21.4043 11.7408 18.6702C11.7408 15.9361 12.5333 13.4799 13.7323 11.7664C14.9313 10.0529 16.4706 9.11115 18.1135 9.11115ZM3.24395 32.4776H32.9831C33.5722 32.4776 34.0452 32.9506 34.0452 33.5397C34.0452 34.1289 33.5722 34.6018 32.9831 34.6018H3.24395C2.65481 34.6018 2.18184 34.1289 2.18184 33.5397C2.18184 33.3945 2.22748 33.2701 2.28141 33.1414C2.44322 32.7597 2.80417 32.4776 3.24395 32.4776ZM4.30606 36.7261H31.921C31.921 41.9868 27.6227 46.2851 22.362 46.2851H13.8651C8.6043 46.2851 4.30606 41.9868 4.30606 36.7261ZM11.077 48.4093H25.15C25.2205 48.4508 25.3658 48.5089 25.7143 49.0399C26.0337 49.5295 26.3324 50.4132 26.4776 51.5956H9.74939C9.8946 50.4132 10.1933 49.5295 10.5128 49.0399C10.8613 48.5089 11.0065 48.4508 11.077 48.4093Z" fill="#A3283E"/>
</svg>
