<svg width="64" height="56" viewBox="0 0 64 56" fill="none" xmlns="http://www.w3.org/2000/svg">
<path d="M16.2973 34.6767C16.9772 34.6767 17.5283 34.1256 17.5283 33.4458C17.5283 32.766 16.9772 32.2148 16.2973 32.2148C15.6175 32.2148 15.0664 32.766 15.0664 33.4458C15.0664 34.1256 15.6175 34.6767 16.2973 34.6767Z" fill="#A3283E"/>
<path d="M12.7524 39.3295C13.4322 39.3295 13.9834 38.7784 13.9834 38.0986C13.9834 37.4188 13.4322 36.8677 12.7524 36.8677C12.0726 36.8677 11.5215 37.4188 11.5215 38.0986C11.5215 38.7784 12.0726 39.3295 12.7524 39.3295Z" fill="#A3283E"/>
<path d="M18.7964 38.0986C19.4762 38.0986 20.0273 37.5475 20.0273 36.8677C20.0273 36.1878 19.4762 35.6367 18.7964 35.6367C18.1165 35.6367 17.5654 36.1878 17.5654 36.8677C17.5654 37.5475 18.1165 38.0986 18.7964 38.0986Z" fill="#A3283E"/>
<path d="M4.56683 53.2632H2.10496C1.7785 53.2632 1.4654 53.3929 1.23456 53.6237C1.00371 53.8546 0.874023 54.1677 0.874023 54.4941C0.874023 54.8206 1.00371 55.1337 1.23456 55.3645C1.4654 55.5954 1.7785 55.7251 2.10496 55.7251H4.56683C4.8933 55.7251 5.20639 55.5954 5.43724 55.3645C5.66808 55.1337 5.79777 54.8206 5.79777 54.4941C5.79777 54.1677 5.66808 53.8546 5.43724 53.6237C5.20639 53.3929 4.8933 53.2632 4.56683 53.2632Z" fill="#A3283E"/>
<path d="M61.1898 53.2639H59.5034C60.6098 52.3155 61.4982 51.1392 62.1079 49.8157C62.7177 48.4921 63.0343 47.0525 63.0362 45.5952C63.0362 45.2687 62.9065 44.9556 62.6757 44.7248C62.4448 44.4939 62.1317 44.3643 61.8053 44.3643H48.782V27.4143C48.7825 25.0798 48.093 22.7972 46.8001 20.8534C45.757 19.3166 45.1956 17.5038 45.1876 15.6465V11.092C45.9462 10.9132 46.6221 10.4834 47.1058 9.87235C47.5896 9.26129 47.8527 8.50478 47.8527 7.72544C47.8527 6.94609 47.5896 6.18958 47.1058 5.57852C46.6221 4.96747 45.9462 4.53768 45.1876 4.35883V1.89695C45.1876 1.57049 45.0579 1.25739 44.8271 1.02655C44.5962 0.795702 44.2831 0.666016 43.9567 0.666016H35.0816C34.7552 0.666016 34.4421 0.795702 34.2112 1.02655C33.9804 1.25739 33.8507 1.57049 33.8507 1.89695V4.35883C33.0922 4.53768 32.4162 4.96747 31.9325 5.57852C31.4488 6.18958 31.1856 6.94609 31.1856 7.72544C31.1856 8.50478 31.4488 9.26129 31.9325 9.87235C32.4162 10.4834 33.0922 10.9132 33.8507 11.092V15.745C33.843 17.5662 33.2946 19.3442 32.2751 20.8534C30.9884 22.7719 30.3027 25.0304 30.3056 27.3404C30.3056 33.9382 30.3056 48.8941 30.3056 53.2639H20.7535C20.5146 52.1742 19.9676 51.176 19.1776 50.3882C18.3876 49.6004 17.388 49.0562 16.2975 48.8203V43.8965C18.5444 43.5864 20.588 42.4302 22.011 40.664C23.434 38.8979 24.129 36.655 23.954 34.3937L23.0308 22.7121C23.006 22.403 22.8654 22.1146 22.6372 21.9047C22.409 21.6947 22.1099 21.5786 21.7998 21.5796H8.358C8.0479 21.5786 7.74886 21.6947 7.52064 21.9047C7.29243 22.1146 7.15187 22.403 7.12707 22.7121L6.19155 34.3937C6.00361 36.6585 6.69163 38.9091 8.11381 40.6817C9.536 42.4542 11.584 43.6137 13.8357 43.9211V48.8449C12.7427 49.084 11.7415 49.6324 10.9515 50.4246C10.1614 51.2169 9.61583 52.2195 9.37968 53.3132C9.21803 53.3204 9.0594 53.3595 8.91284 53.4281C8.76628 53.4967 8.63466 53.5934 8.5255 53.7129C8.30504 53.9541 8.18944 54.273 8.20414 54.5995C8.21883 54.926 8.3626 55.2332 8.60384 55.4537C8.84507 55.6741 9.164 55.7897 9.49046 55.775H61.1898C61.5163 55.775 61.8294 55.6454 62.0602 55.4145C62.291 55.1837 62.4207 54.8706 62.4207 54.5441C62.4207 54.2176 62.291 53.9045 62.0602 53.6737C61.8294 53.4429 61.5163 53.3132 61.1898 53.3132V53.2639ZM20.6551 24.0415L21.0243 28.7068H9.10887L9.49046 24.0415H20.6551ZM10.3275 39.4774C9.7166 38.821 9.25073 38.0434 8.96018 37.1951C8.66964 36.3468 8.56092 35.4468 8.64112 34.5537L8.91192 31.1317H21.2213L21.4921 34.5537C21.606 35.893 21.2987 37.2344 20.6131 38.3906C19.9275 39.5467 18.8978 40.4597 17.6679 41.0021C16.4381 41.5445 15.0695 41.6891 13.7534 41.4158C12.4374 41.1424 11.2396 40.4647 10.3275 39.4774ZM11.9523 53.2639C12.199 52.6391 12.6279 52.1029 13.1833 51.7251C13.7387 51.3472 14.3949 51.1452 15.0666 51.1452C15.7383 51.1452 16.3945 51.3472 16.9499 51.7251C17.5053 52.1029 17.9342 52.6391 18.1809 53.2639H11.9523ZM36.3126 3.09096H42.7257V4.26035H36.3126V3.09096ZM32.7552 32.6334C33.2995 32.7229 33.7944 33.0028 34.1514 33.4233C34.5085 33.8438 34.7045 34.3775 34.7045 34.9291C34.7045 35.4808 34.5085 36.0145 34.1514 36.435C33.7944 36.8555 33.2995 37.1354 32.7552 37.2248V32.6334ZM32.7552 44.1796H35.0939C35.4204 44.1796 35.7335 44.0499 35.9643 43.8191C36.1952 43.5882 36.3249 43.2751 36.3249 42.9487C36.3249 42.6222 36.1952 42.3091 35.9643 42.0783C35.7335 41.8474 35.4204 41.7177 35.0939 41.7177H32.7552C32.7552 41.0407 32.7552 40.376 32.7552 39.6867C33.9751 39.6246 35.1246 39.0963 35.9661 38.2109C36.8076 37.3255 37.2768 36.1506 37.2768 34.9291C37.2768 33.7076 36.8076 32.5328 35.9661 31.6474C35.1246 30.762 33.9751 30.2336 32.7552 30.1716V28.6452H38.7868C38.8956 28.6484 38.9989 28.6939 39.0748 28.7721C39.1506 28.8502 39.193 28.9548 39.193 29.0637V45.3736C39.193 45.4825 39.1506 45.5872 39.0748 45.6653C38.9989 45.7434 38.8956 45.7889 38.7868 45.7921H32.7429L32.7552 44.1796ZM32.7552 53.2024V48.254H38.7868C39.5485 48.2508 40.278 47.9459 40.8155 47.406C41.3531 46.8662 41.6548 46.1354 41.6548 45.3736V29.0637C41.6548 28.3019 41.3531 27.5711 40.8155 27.0313C40.278 26.4915 39.5485 26.1866 38.7868 26.1833H32.8783C33.0477 24.7652 33.5496 23.4072 34.3431 22.2197C35.6184 20.305 36.3033 18.0579 36.3126 15.7573V9.95959C36.3135 9.79759 36.2825 9.637 36.2212 9.48702C36.1599 9.33705 36.0697 9.20064 35.9556 9.08562C35.8416 8.96931 35.7056 8.87678 35.5556 8.81339C35.4056 8.75 35.2445 8.71702 35.0816 8.71634H34.6385C34.3741 8.71634 34.1205 8.61129 33.9335 8.42431C33.7465 8.23732 33.6414 7.98372 33.6414 7.71928C33.6414 7.45484 33.7465 7.20124 33.9335 7.01425C34.1205 6.82727 34.3741 6.72222 34.6385 6.72222H44.486C44.7504 6.72222 45.004 6.82727 45.191 7.01425C45.378 7.20124 45.4831 7.45484 45.4831 7.71928C45.4831 7.98372 45.378 8.23732 45.191 8.42431C45.004 8.61129 44.7504 8.71634 44.486 8.71634H39.5622C39.2358 8.71634 38.9227 8.84603 38.6918 9.07687C38.461 9.30772 38.3313 9.62081 38.3313 9.94728C38.3313 10.2737 38.461 10.5868 38.6918 10.8177C38.9227 11.0485 39.2358 11.1782 39.5622 11.1782H42.7257V15.6465C42.7191 17.9858 43.409 20.274 44.7076 22.2197C45.7387 23.7555 46.2874 25.5644 46.2832 27.4143V44.3643H43.9567C43.6302 44.3643 43.3171 44.4939 43.0863 44.7248C42.8554 44.9556 42.7257 45.2687 42.7257 45.5952C42.7244 47.053 43.0395 48.4937 43.6495 49.8178C44.2595 51.1418 45.1496 52.3176 46.2585 53.2639L32.7552 53.2024ZM52.9056 53.2024C51.0849 53.2026 49.3236 52.5551 47.9366 51.3756C46.5496 50.1961 45.6276 48.5616 45.3353 46.7646H60.4758C60.1918 48.5729 59.2723 50.2206 57.8825 51.4118C56.4927 52.6031 54.7237 53.2598 52.8933 53.2639L52.9056 53.2024Z" fill="#A3283E"/>
</svg>
