<svg width="65" height="46" viewBox="0 0 65 46" fill="none" xmlns="http://www.w3.org/2000/svg">
<path d="M44.6979 45.2759C44.5944 45.2953 44.488 45.2917 44.3861 45.2654C44.2843 45.239 44.1895 45.1905 44.1085 45.1233C44.0275 45.0562 43.9623 44.972 43.9176 44.8767C43.8728 44.7815 43.8496 44.6776 43.8496 44.5723C43.8496 44.4671 43.8728 44.3632 43.9176 44.2679C43.9623 44.1727 44.0275 44.0885 44.1085 44.0213C44.1895 43.9541 44.2843 43.9056 44.3861 43.8793C44.488 43.8529 44.5944 43.8493 44.6979 43.8688H56.3988C56.5629 43.8996 56.7109 43.9868 56.8175 44.1153C56.924 44.2438 56.9823 44.4054 56.9823 44.5723C56.9823 44.7392 56.924 44.9009 56.8175 45.0293C56.7109 45.1578 56.5629 45.245 56.3988 45.2759H44.6979Z" fill="#A3283E" stroke="#A3283E"/>
<path d="M50.2993 42.2889C50.1353 42.2581 49.9872 42.1709 49.8807 42.0424C49.7741 41.9139 49.7158 41.7523 49.7158 41.5854C49.7158 41.4185 49.7741 41.2568 49.8807 41.1284C49.9872 40.9999 50.1353 40.9127 50.2993 40.8818H54.0269C54.1909 40.9127 54.339 40.9999 54.4455 41.1284C54.5521 41.2568 54.6104 41.4185 54.6104 41.5854C54.6104 41.7523 54.5521 41.9139 54.4455 42.0424C54.339 42.1709 54.1909 42.2581 54.0269 42.2889H50.2993Z" fill="#A3283E" stroke="#A3283E"/>
<path d="M47.9801 43.9682C47.8767 43.9877 47.7702 43.9841 47.6684 43.9578C47.5665 43.9314 47.4717 43.8829 47.3907 43.8157C47.3097 43.7486 47.2445 43.6643 47.1998 43.5691C47.155 43.4739 47.1318 43.3699 47.1318 43.2647C47.1318 43.1595 47.155 43.0556 47.1998 42.9603C47.2445 42.8651 47.3097 42.7809 47.3907 42.7137C47.4717 42.6465 47.5665 42.598 47.6684 42.5717C47.7702 42.5453 47.8767 42.5417 47.9801 42.5612H59.4836C59.587 42.5417 59.6934 42.5453 59.7953 42.5717C59.8972 42.598 59.992 42.6465 60.073 42.7137C60.1539 42.7809 60.2191 42.8651 60.2639 42.9603C60.3086 43.0556 60.3318 43.1595 60.3318 43.2647C60.3318 43.3699 60.3086 43.4739 60.2639 43.5691C60.2191 43.6643 60.1539 43.7486 60.073 43.8157C59.992 43.8829 59.8972 43.9314 59.7953 43.9578C59.6934 43.9841 59.587 43.9877 59.4836 43.9682H47.9801Z" fill="#A3283E" stroke="#A3283E"/>
<path fill-rule="evenodd" clip-rule="evenodd" d="M27.1458 1.87897C28.0355 1.87409 28.9065 2.13342 29.6486 2.62411C30.3906 3.11481 30.9703 3.81476 31.3142 4.63527C31.658 5.45577 31.7505 6.35989 31.58 7.23302C31.4094 8.10616 30.9835 8.909 30.3561 9.5398C29.7288 10.1706 28.9283 10.6009 28.0561 10.7763C27.184 10.9517 26.2793 10.8642 25.457 10.5248C24.6346 10.1855 23.9314 9.60971 23.4367 8.87036C22.9419 8.131 22.6777 7.26139 22.6777 6.37175C22.6777 5.18446 23.1477 4.04543 23.9849 3.20357C24.8221 2.36172 25.9586 1.8855 27.1458 1.87897Z" fill="white" stroke="#A3283E"/>
<path d="M29.8109 3.68172C29.103 2.97624 28.1443 2.58011 27.1449 2.58011C26.1454 2.58011 25.1867 2.97624 24.4788 3.68172C23.7733 4.38965 23.3772 5.34834 23.3772 6.34777C23.3772 7.3472 23.7733 8.30589 24.4788 9.01381C25.1988 9.65368 26.1361 9.99427 27.0989 9.96593C28.0617 9.93759 28.9773 9.54245 29.6584 8.86134C30.3395 8.18023 30.7347 7.26462 30.763 6.3018C30.7914 5.33898 30.4508 4.40172 29.8109 3.68172ZM27.1449 1.21316C28.1738 1.20817 29.181 1.50949 30.0381 2.07877C30.8952 2.64804 31.5635 3.45952 31.958 4.40987C32.3524 5.36023 32.4551 6.40646 32.253 7.41537C32.0509 8.42428 31.5531 9.35022 30.823 10.0753C30.3403 10.5679 29.7642 10.9593 29.1284 11.2265C28.4926 11.4936 27.8098 11.6312 27.1202 11.6312C26.4305 11.6312 25.7478 11.4936 25.1119 11.2265C24.4761 10.9593 23.9 10.5679 23.4173 10.0753H23.5901C23.0975 9.59262 22.7061 9.01651 22.439 8.38069C22.1718 7.74487 22.0342 7.06213 22.0342 6.37245C22.0342 5.68278 22.1718 5.00004 22.439 4.36422C22.7061 3.7284 23.0975 3.15228 23.5901 2.66961C24.5409 1.73778 25.8137 1.20744 27.1449 1.18848V1.21316Z" fill="#A3283E" stroke="#A3283E"/>
<path fill-rule="evenodd" clip-rule="evenodd" d="M33.7853 4.14997C37.8831 1.03959 40.0061 1.21239 41.1663 3.21192C42.1044 4.76711 43.3387 13.3824 44.2273 16.3447C38.525 15.2832 32.9707 14.0736 29.7863 8.69212C28.1323 5.90265 28.3545 3.755 33.7853 4.14997Z" fill="white" stroke="#A3283E"/>
<path d="M38.6242 2.47172C36.9861 2.81719 35.4695 3.59254 34.2302 4.71811C34.0908 4.82929 33.914 4.88236 33.7364 4.86622C31.2679 4.69342 30.157 5.01434 29.7374 5.60679C29.3671 6.17456 29.7374 7.16198 30.4039 8.32221C31.7937 10.6028 33.8792 12.3767 36.3531 13.3828C38.597 14.3328 40.9403 15.0283 43.3391 15.4563C43.0923 14.3949 42.8454 12.9878 42.5492 11.6301C42.1206 8.87214 41.46 6.15531 40.5744 3.50852C40.4048 3.14928 40.1295 2.8504 39.7854 2.65189C39.4413 2.45337 39.0448 2.36467 38.6489 2.39766M33.4649 3.50852C34.8559 2.25258 36.5627 1.39919 38.402 1.03996C39.0647 0.96789 39.7334 1.10235 40.3167 1.42492C40.9 1.7475 41.3693 2.24244 41.6605 2.842C42.6261 5.60857 43.3287 8.46004 43.7588 11.3585C44.1538 13.3087 44.4994 15.1354 44.7709 16.1722C44.7967 16.2866 44.7941 16.4056 44.7631 16.5187C44.7322 16.6318 44.6739 16.7356 44.5935 16.821C44.513 16.9063 44.4128 16.9705 44.3017 17.0081C44.1906 17.0456 44.072 17.0553 43.9563 17.0362C41.1151 16.605 38.3324 15.8513 35.6619 14.7898C32.9039 13.643 30.5915 11.6337 29.0709 9.06278C28.1081 7.45821 27.7378 5.97708 28.429 4.86622C29.2437 3.82943 30.7742 3.28634 33.4649 3.50852Z" fill="#A3283E"/>
<path d="M38.6242 2.47172C36.9861 2.81719 35.4695 3.59254 34.2302 4.71811C34.0908 4.82929 33.914 4.88236 33.7364 4.86622C31.2679 4.69342 30.157 5.01434 29.7374 5.60679C29.3671 6.17456 29.7374 7.16198 30.4039 8.32221C31.7937 10.6028 33.8792 12.3767 36.3531 13.3828C38.597 14.3328 40.9403 15.0283 43.3391 15.4563C43.0923 14.3949 42.8454 12.9878 42.5492 11.6301C42.1206 8.87214 41.46 6.15531 40.5744 3.50852C40.4048 3.14928 40.1295 2.8504 39.7854 2.65189C39.4413 2.45337 39.0448 2.36467 38.6489 2.39766M33.4649 3.50852C34.8559 2.25258 36.5627 1.39919 38.402 1.03996C39.0647 0.96789 39.7334 1.10235 40.3167 1.42492C40.9 1.7475 41.3693 2.24244 41.6605 2.842C42.6261 5.60857 43.3287 8.46004 43.7588 11.3585C44.1538 13.3087 44.4994 15.1354 44.7709 16.1722C44.7967 16.2866 44.7941 16.4056 44.7631 16.5187C44.7322 16.6318 44.6739 16.7356 44.5935 16.821C44.513 16.9063 44.4128 16.9705 44.3017 17.0081C44.1906 17.0456 44.072 17.0553 43.9563 17.0362C41.1151 16.605 38.3324 15.8513 35.6619 14.7898C32.9039 13.643 30.5915 11.6337 29.0709 9.06278C28.1081 7.45821 27.7378 5.97708 28.429 4.86622C29.2437 3.82943 30.7742 3.28634 33.4649 3.50852Z" stroke="#A3283E"/>
<path d="M33.1429 4.42213C33.1008 4.25553 33.12 4.07934 33.1971 3.92573C33.2741 3.77212 33.4038 3.65134 33.5625 3.58546C33.7212 3.51958 33.8984 3.51299 34.0615 3.56689C34.2247 3.62079 34.363 3.73159 34.4513 3.87905L34.7475 4.61962C34.9949 5.35897 35.335 6.06401 35.7596 6.71789C36.1397 7.10495 36.5717 7.43727 37.0433 7.70532L38.2282 8.49525C38.3438 8.61345 38.4149 8.76802 38.4295 8.93272C38.4441 9.09741 38.4012 9.26208 38.3082 9.39875C38.2151 9.53542 38.0776 9.63567 37.919 9.68247C37.7605 9.72927 37.5906 9.71973 37.4382 9.65548L36.278 8.89022C35.6802 8.55772 35.1386 8.13283 34.6734 7.63126C34.1536 6.87085 33.7463 6.03943 33.4638 5.1627L33.1429 4.42213Z" fill="#A3283E" stroke="#A3283E"/>
<path fill-rule="evenodd" clip-rule="evenodd" d="M55.6825 8.4458C56.5732 8.44585 57.4437 8.71064 58.1836 9.20653C58.9235 9.70243 59.4993 10.407 59.8378 11.2309C60.1764 12.0547 60.2624 12.9606 60.085 13.8334C59.9076 14.7062 59.4748 15.5066 58.8415 16.133C58.2082 16.7593 57.4031 17.1832 56.5283 17.351C55.6536 17.5187 54.7487 17.4227 53.9287 17.075C53.1087 16.7274 52.4105 16.1439 51.9228 15.3986C51.4351 14.6533 51.1799 13.7798 51.1897 12.8892C51.2027 11.7062 51.6818 10.5761 52.523 9.7442C53.3641 8.91229 54.4994 8.44573 55.6825 8.4458Z" fill="white" stroke="#A3283E"/>
<path d="M58.3233 10.2228C57.6153 9.51729 56.6567 9.12116 55.6572 9.12116C54.6578 9.12116 53.6991 9.51729 52.9912 10.2228C52.2857 10.9307 51.8896 11.8894 51.8896 12.8888C51.8896 13.8882 52.2857 14.8469 52.9912 15.5549C53.7112 16.1947 54.6484 16.5353 55.6113 16.507C56.5741 16.4786 57.4897 16.0835 58.1708 15.4024C58.8519 14.7213 59.247 13.8057 59.2754 12.8429C59.3037 11.88 58.9631 10.9428 58.3233 10.2228ZM55.6819 7.70484C56.7109 7.69985 57.718 8.00117 58.5751 8.57045C59.4323 9.13972 60.1006 9.9512 60.495 10.9016C60.8895 11.8519 60.9922 12.8981 60.7901 13.9071C60.5879 14.916 60.0901 15.8419 59.3601 16.567C58.8774 17.0596 58.3013 17.451 57.6655 17.7181C57.0296 17.9853 56.3469 18.1229 55.6572 18.1229C54.9676 18.1229 54.2848 17.9853 53.649 17.7181C53.0132 17.451 52.4371 17.0596 51.9544 16.567C51.4618 16.0843 51.0704 15.5082 50.8032 14.8724C50.5361 14.2365 50.3984 13.5538 50.3984 12.8641C50.3984 12.1745 50.5361 11.4917 50.8032 10.8559C51.0704 10.2201 51.4618 9.64396 51.9544 9.16129C52.4474 8.6825 53.0311 8.30703 53.6712 8.05692C54.3113 7.80682 54.9949 7.68711 55.6819 7.70484Z" fill="#A3283E" stroke="#A3283E"/>
<path fill-rule="evenodd" clip-rule="evenodd" d="M6.82753 10.9146C7.43381 10.8948 8.03805 10.9947 8.6057 11.2086C9.17334 11.4225 9.69326 11.7462 10.1357 12.1612C10.5782 12.5761 10.9346 13.0742 11.1844 13.627C11.4343 14.1798 11.5727 14.7763 11.5918 15.3827C11.5759 15.9911 11.4398 16.5903 11.1914 17.1459C10.9429 17.7016 10.5871 18.2026 10.1443 18.6201C9.70147 19.0377 9.18047 19.3635 8.61125 19.579C8.04203 19.7944 7.43583 19.8952 6.82753 19.8754C6.22126 19.8919 5.6177 19.7887 5.05134 19.5717C4.48498 19.3548 3.96691 19.0284 3.52675 18.6112C3.08659 18.1939 2.73296 17.694 2.48608 17.1401C2.23919 16.5861 2.10388 15.9889 2.08789 15.3827C2.1266 14.1626 2.64702 13.0075 3.53526 12.1701C4.42351 11.3327 5.60726 10.8813 6.82753 10.9146Z" fill="white" stroke="#A3283E"/>
<path d="M9.71706 12.7409C8.93098 12.0163 7.89794 11.6189 6.82885 11.6301C5.72586 11.5932 4.65274 11.9923 3.84189 12.7409C3.47455 13.0785 3.1813 13.4887 2.98069 13.9455C2.78009 14.4023 2.67652 14.8957 2.67652 15.3946C2.67652 15.8935 2.78009 16.387 2.98069 16.8438C3.1813 17.3006 3.47455 17.7108 3.84189 18.0483C4.62797 18.773 5.66101 19.1703 6.7301 19.1592C7.7992 19.1703 8.83224 18.773 9.61832 18.0483C9.98566 17.7108 10.2789 17.3006 10.4795 16.8438C10.6801 16.387 10.7837 15.8935 10.7837 15.3946C10.7837 14.8957 10.6801 14.4023 10.4795 13.9455C10.2789 13.4887 9.98566 13.0785 9.61832 12.7409M6.7301 10.2724C8.15878 10.2651 9.5363 10.8037 10.5811 11.7782C11.1064 12.2415 11.5271 12.8113 11.8153 13.4497C12.1035 14.0881 12.2526 14.7806 12.2526 15.481C12.2526 16.1815 12.1035 16.8739 11.8153 17.5124C11.5271 18.1508 11.1064 18.7206 10.5811 19.1839C9.5363 20.1584 8.15878 20.697 6.7301 20.6897C5.33076 20.6394 4.00097 20.0669 3.00258 19.0851C2.47723 18.6218 2.05649 18.052 1.7683 17.4136C1.4801 16.7752 1.33105 16.0828 1.33105 15.3823C1.33105 14.6818 1.4801 13.9894 1.7683 13.351C2.05649 12.7126 2.47723 12.1428 3.00258 11.6795C4.04489 10.7198 5.41204 10.1906 6.82885 10.1983L6.7301 10.2724Z" fill="#A3283E"/>
<path d="M9.71706 12.7409C8.93098 12.0163 7.89794 11.6189 6.82885 11.6301C5.72586 11.5932 4.65274 11.9923 3.84189 12.7409C3.47455 13.0785 3.1813 13.4887 2.98069 13.9455C2.78009 14.4023 2.67652 14.8957 2.67652 15.3946C2.67652 15.8935 2.78009 16.387 2.98069 16.8438C3.1813 17.3006 3.47455 17.7108 3.84189 18.0483C4.62797 18.773 5.66101 19.1703 6.7301 19.1592C7.7992 19.1703 8.83224 18.773 9.61832 18.0483C9.98566 17.7108 10.2789 17.3006 10.4795 16.8438C10.6801 16.387 10.7837 15.8935 10.7837 15.3946C10.7837 14.8957 10.6801 14.4023 10.4795 13.9455C10.2789 13.4887 9.98566 13.0785 9.61832 12.7409M6.7301 10.2724C8.15878 10.2651 9.5363 10.8037 10.5811 11.7782C11.1064 12.2415 11.5271 12.8113 11.8153 13.4497C12.1035 14.0881 12.2526 14.7806 12.2526 15.481C12.2526 16.1815 12.1035 16.8739 11.8153 17.5124C11.5271 18.1508 11.1064 18.7206 10.5811 19.1839C9.5363 20.1584 8.15878 20.697 6.7301 20.6897C5.33076 20.6394 4.00097 20.0669 3.00258 19.0851C2.47723 18.6218 2.05649 18.052 1.7683 17.4136C1.4801 16.7752 1.33105 16.0828 1.33105 15.3823C1.33105 14.6818 1.4801 13.9894 1.7683 13.351C2.05649 12.7126 2.47723 12.1428 3.00258 11.6795C4.04489 10.7198 5.41204 10.1906 6.82885 10.1983L6.7301 10.2724Z" stroke="#A3283E"/>
<path fill-rule="evenodd" clip-rule="evenodd" d="M26.9735 8.64355C28.2527 8.64355 29.5031 9.02287 30.5667 9.73355C31.6303 10.4442 32.4593 11.4543 32.9488 12.6361C33.4383 13.8179 33.5664 15.1184 33.3168 16.373C33.0673 17.6276 32.4513 18.78 31.5468 19.6845C30.6423 20.589 29.4899 21.205 28.2353 21.4545C26.9807 21.7041 25.6802 21.576 24.4984 21.0865C23.3166 20.597 22.3065 19.768 21.5959 18.7044C20.8852 17.6408 20.5059 16.3904 20.5059 15.1112C20.5059 13.3959 21.1873 11.7508 22.4002 10.5379C23.6131 9.32496 25.2582 8.64355 26.9735 8.64355Z" fill="white" stroke="#A3283E"/>
<path d="M30.9958 11.0381C30.0456 10.108 28.8026 9.53573 27.4781 9.41878C26.1536 9.30183 24.8294 9.64739 23.731 10.3967C22.6325 11.1459 21.8276 12.2527 21.4532 13.5285C21.0787 14.8043 21.1579 16.1705 21.6772 17.3946C22.1965 18.6186 23.1239 19.625 24.3015 20.2424C25.4791 20.8598 26.8343 21.0501 28.1364 20.7809C29.4386 20.5118 30.6072 19.7998 31.4436 18.7661C32.2799 17.7324 32.7323 16.4409 32.7238 15.1113C32.7189 14.3519 32.5637 13.601 32.2671 12.9019C31.9705 12.2028 31.5384 11.5694 30.9958 11.0381ZM26.972 7.92775C28.6349 7.92468 30.2473 8.4986 31.5343 9.55161C32.8212 10.6046 33.703 12.0715 34.0292 13.7021C34.3554 15.3326 34.1058 17.0258 33.323 18.4929C32.5402 19.96 31.2727 21.1101 29.7367 21.747C28.2006 22.3839 26.4912 22.4681 24.8999 21.9854C23.3087 21.5027 21.9342 20.4829 21.0109 19.0999C20.0876 17.7169 19.6727 16.0565 19.8369 14.4017C20.0011 12.747 20.7343 11.2005 21.9115 10.026C23.2534 8.6833 25.0737 7.92854 26.972 7.92775Z" fill="#A3283E" stroke="#A3283E"/>
<path fill-rule="evenodd" clip-rule="evenodd" d="M10.2364 21.8255C7.66908 16.0737 4.97835 9.30986 7.22474 3.11377C9.07682 4.54586 11.08 5.77097 13.1987 6.76724C16.5806 8.29775 21.4683 9.063 24.0603 11.4822C27.5904 14.7654 26.1586 19.6778 24.0603 24.8371L10.2364 21.8255Z" fill="white" stroke="#A3283E"/>
<path d="M7.61933 12.4942C8.37299 15.5003 9.4146 18.4267 10.7297 21.2329L23.5909 24.0224C24.5607 21.9175 25.2098 19.6792 25.5164 17.382C25.6552 16.3924 25.5525 15.3839 25.2173 14.4426C24.882 13.5012 24.324 12.6549 23.5909 11.9758C21.5845 10.4931 19.3014 9.4271 16.8764 8.84077C15.5258 8.42885 14.199 7.94263 12.902 7.38432C11.8928 6.92477 10.9119 6.40546 9.96446 5.82913C9.1992 5.3601 8.40927 4.8417 7.4959 4.24925C6.81357 6.94687 6.81357 9.77193 7.4959 12.4696M9.44606 22.0476C8.10496 19.0702 7.05504 15.97 6.31099 12.7905C5.46611 9.53669 5.57753 6.10828 6.6319 2.91623C6.68837 2.7543 6.80302 2.61915 6.95357 2.53704C7.10412 2.45492 7.27981 2.4317 7.44653 2.47189H7.61933C8.73018 3.3112 9.74229 3.97771 10.6803 4.57016C11.58 5.11877 12.5114 5.61335 13.4698 6.0513C14.7196 6.5801 15.9969 7.04156 17.2961 7.43369C19.93 8.07934 22.4013 9.26455 24.5537 10.9144C25.4454 11.7322 26.1232 12.7561 26.5277 13.8965C26.9322 15.0369 27.0512 16.2591 26.8741 17.456C26.5122 20.0921 25.7462 22.6565 24.603 25.0592C24.5386 25.2085 24.4252 25.3313 24.2817 25.4076C24.1381 25.4839 23.9728 25.509 23.8131 25.4789L10.0879 22.5166C9.9704 22.4937 9.86086 22.4408 9.76999 22.3629C9.67912 22.285 9.61003 22.1849 9.56949 22.0723L9.44606 22.0476Z" fill="#A3283E"/>
<path d="M7.61933 12.4942C8.37299 15.5003 9.4146 18.4267 10.7297 21.2329L23.5909 24.0224C24.5607 21.9175 25.2098 19.6792 25.5164 17.382C25.6552 16.3924 25.5525 15.3839 25.2173 14.4426C24.882 13.5012 24.324 12.6549 23.5909 11.9758C21.5845 10.4931 19.3014 9.4271 16.8764 8.84077C15.5258 8.42885 14.199 7.94263 12.902 7.38432C11.8928 6.92477 10.9119 6.40546 9.96446 5.82913C9.1992 5.3601 8.40927 4.8417 7.4959 4.24925C6.81357 6.94687 6.81357 9.77193 7.4959 12.4696M9.44606 22.0476C8.10496 19.0702 7.05504 15.97 6.31099 12.7905C5.46611 9.53669 5.57753 6.10828 6.6319 2.91623C6.68837 2.7543 6.80302 2.61915 6.95357 2.53704C7.10412 2.45492 7.27981 2.4317 7.44653 2.47189H7.61933C8.73018 3.3112 9.74229 3.97771 10.6803 4.57016C11.58 5.11877 12.5114 5.61335 13.4698 6.0513C14.7196 6.5801 15.9969 7.04156 17.2961 7.43369C19.93 8.07934 22.4013 9.26455 24.5537 10.9144C25.4454 11.7322 26.1232 12.7561 26.5277 13.8965C26.9322 15.0369 27.0512 16.2591 26.8741 17.456C26.5122 20.0921 25.7462 22.6565 24.603 25.0592C24.5386 25.2085 24.4252 25.3313 24.2817 25.4076C24.1381 25.4839 23.9728 25.509 23.8131 25.4789L10.0879 22.5166C9.9704 22.4937 9.86086 22.4408 9.76999 22.3629C9.67912 22.285 9.61003 22.1849 9.56949 22.0723L9.44606 22.0476Z" stroke="#A3283E"/>
<path d="M22.4563 24.0966C22.5152 24.2712 22.5045 24.4617 22.4265 24.6286C22.3484 24.7954 22.2091 24.9258 22.0374 24.9926C21.8657 25.0593 21.6749 25.0574 21.5047 24.987C21.3344 24.9167 21.1978 24.7835 21.1233 24.615L20.8024 23.8004C19.5587 19.6179 17.0912 15.9036 13.7176 13.1362C13.6117 13.0021 13.5572 12.8346 13.564 12.6639C13.5709 12.4932 13.6385 12.3305 13.7548 12.2053C13.871 12.0801 14.0282 12.0006 14.198 11.9812C14.3677 11.9618 14.5388 12.0037 14.6803 12.0994C18.2166 14.9925 20.8047 18.879 22.1107 23.2573L22.4563 24.0966Z" fill="#A3283E" stroke="#A3283E"/>
<path fill-rule="evenodd" clip-rule="evenodd" d="M32.0815 15.1604C32.6117 15.1599 33.138 15.2518 33.6367 15.4319C33.6367 15.4319 33.6367 15.2591 33.6367 15.1604C33.6378 14.4462 33.8055 13.7421 34.1265 13.104C34.4474 12.466 34.9128 11.9117 35.4856 11.4851C36.0584 11.0585 36.7228 10.7714 37.4261 10.6466C38.1293 10.5218 38.8519 10.5628 39.5365 10.7663C39.5365 10.6182 39.5365 10.4701 39.5365 10.322C39.5365 9.71902 39.6553 9.12196 39.886 8.56489C40.1168 8.00782 40.455 7.50166 40.8814 7.07529C41.3077 6.64893 41.8139 6.31072 42.371 6.07998C42.928 5.84923 43.5251 5.73047 44.128 5.73047C44.731 5.73047 45.3281 5.84923 45.8852 6.07998C46.4422 6.31072 46.9484 6.64893 47.3748 7.07529C47.8011 7.50166 48.1393 8.00782 48.3701 8.56489C48.6008 9.12196 48.7196 9.71902 48.7196 10.322C48.73 10.5029 48.73 10.6842 48.7196 10.8651C49.3542 10.5665 50.0488 10.4172 50.7501 10.4288C51.4514 10.4403 52.1407 10.6124 52.7652 10.9318C53.3896 11.2512 53.9326 11.7093 54.3525 12.2712C54.7723 12.833 55.0579 13.4836 55.1872 14.1729C55.7884 13.7911 56.4701 13.5542 57.1786 13.4812C57.8871 13.4083 58.6028 13.5011 59.2692 13.7524C59.9356 14.0036 60.5344 14.4065 61.0183 14.9291C61.5022 15.4517 61.8579 16.0797 62.0572 16.7635C62.2566 17.4472 62.2941 18.168 62.1669 18.8687C62.0397 19.5695 61.7512 20.231 61.3242 20.8011C60.8973 21.3711 60.3436 21.8341 59.7069 22.1532C59.0702 22.4724 58.368 22.6391 57.6558 22.6401C57.3439 22.6718 57.0296 22.6718 56.7177 22.6401C56.4462 27.5772 51.7806 31.3294 45.856 31.3294C43.3922 31.4845 40.9536 30.7574 38.9769 29.2783C37.0003 27.7992 35.6148 25.6648 35.0684 23.2572C34.5068 23.7404 33.8366 24.0805 33.1151 24.2485C32.3935 24.4165 31.6421 24.4074 30.9248 24.222C30.2075 24.0365 29.5458 23.6803 28.996 23.1837C28.4463 22.6871 28.0249 22.0648 27.7678 21.37C27.5107 20.6752 27.4255 19.9285 27.5196 19.1936C27.6136 18.4588 27.8841 17.7576 28.3079 17.1499C28.7317 16.5423 29.2963 16.0462 29.9534 15.7041C30.6105 15.3619 31.3406 15.1838 32.0815 15.1851" fill="white"/>
<path d="M32.0815 15.1604C32.6117 15.1599 33.138 15.2518 33.6367 15.4319C33.6367 15.4319 33.6367 15.2591 33.6367 15.1604C33.6378 14.4462 33.8055 13.7421 34.1265 13.104C34.4474 12.466 34.9128 11.9117 35.4856 11.4851C36.0584 11.0585 36.7228 10.7714 37.4261 10.6466C38.1293 10.5218 38.8519 10.5628 39.5365 10.7663C39.5365 10.6182 39.5365 10.4701 39.5365 10.322C39.5365 9.71902 39.6553 9.12196 39.886 8.56489C40.1168 8.00782 40.455 7.50166 40.8814 7.07529C41.3077 6.64893 41.8139 6.31072 42.371 6.07998C42.928 5.84923 43.5251 5.73047 44.1281 5.73047C44.731 5.73047 45.3281 5.84923 45.8852 6.07998C46.4422 6.31072 46.9484 6.64893 47.3748 7.07529C47.8011 7.50166 48.1393 8.00782 48.3701 8.56489C48.6008 9.12196 48.7196 9.71902 48.7196 10.322C48.73 10.5029 48.73 10.6842 48.7196 10.8651C49.3542 10.5665 50.0488 10.4172 50.7501 10.4288C51.4514 10.4403 52.1407 10.6124 52.7652 10.9318C53.3896 11.2512 53.9326 11.7093 54.3525 12.2712C54.7723 12.833 55.0579 13.4836 55.1872 14.1729C55.7884 13.7911 56.4701 13.5542 57.1786 13.4812C57.8871 13.4083 58.6028 13.5011 59.2692 13.7524C59.9356 14.0036 60.5344 14.4065 61.0183 14.9291C61.5022 15.4517 61.8579 16.0797 62.0572 16.7635C62.2566 17.4472 62.2941 18.168 62.1669 18.8687C62.0397 19.5695 61.7512 20.231 61.3242 20.8011C60.8973 21.3711 60.3436 21.8341 59.7069 22.1532C59.0702 22.4724 58.368 22.6391 57.6558 22.6401C57.3439 22.6718 57.0296 22.6718 56.7177 22.6401C56.4462 27.5772 51.7806 31.3294 45.856 31.3294C43.3922 31.4845 40.9536 30.7574 38.9769 29.2783C37.0003 27.7992 35.6148 25.6648 35.0684 23.2572C34.5068 23.7404 33.8366 24.0805 33.1151 24.2485C32.3935 24.4165 31.6421 24.4074 30.9248 24.222C30.2075 24.0365 29.5458 23.6803 28.996 23.1837C28.4463 22.6871 28.0249 22.0648 27.7678 21.37C27.5107 20.6752 27.4255 19.9285 27.5196 19.1936C27.6136 18.4588 27.8841 17.7576 28.3079 17.1499C28.7317 16.5423 29.2963 16.0462 29.9534 15.7041C30.6105 15.3619 31.3406 15.1838 32.0815 15.1851" stroke="#A3283E"/>
<path d="M32.7484 15.8509H32.0819C31.3163 15.8461 30.5664 16.0682 29.9269 16.4891C29.2874 16.91 28.7869 17.5109 28.4885 18.2159C28.1901 18.921 28.1072 19.6986 28.2503 20.4507C28.3934 21.2028 28.756 21.8957 29.2924 22.4419C29.98 23.1339 30.9033 23.5411 31.8779 23.5823C32.8526 23.6235 33.8069 23.2956 34.5504 22.6641C34.6462 22.5782 34.7633 22.5197 34.8895 22.4947C35.0156 22.4698 35.1462 22.4792 35.2675 22.5222C35.3887 22.5651 35.4961 22.6399 35.5785 22.7388C35.6608 22.8376 35.715 22.9568 35.7353 23.0838C35.9108 24.1356 36.2936 25.1422 36.8615 26.0448C37.4293 26.9475 38.171 27.7283 39.0432 28.3418C41.0735 29.7891 43.5108 30.5546 46.004 30.528C48.4972 30.5014 50.9176 29.684 52.9165 28.1937C53.81 27.524 54.5499 26.6709 55.0864 25.6916C55.6229 24.7123 55.9435 23.6295 56.0269 22.516C56.0444 22.4242 56.0803 22.3369 56.1324 22.2594C56.1846 22.1819 56.252 22.1157 56.3304 22.065C56.4089 22.0142 56.4968 21.9799 56.5889 21.964C56.681 21.9482 56.7753 21.9512 56.8662 21.9729H57.2612H57.6561C58.4217 21.9777 59.1716 21.7556 59.8111 21.3347C60.4506 20.9138 60.9511 20.3129 61.2495 19.6079C61.5479 18.9028 61.6308 18.1252 61.4877 17.3731C61.3447 16.621 60.982 15.9281 60.4456 15.3819C59.8165 14.7275 58.9777 14.3147 58.0755 14.2155C57.1732 14.1162 56.2648 14.3368 55.5085 14.8388H55.237C55.0541 14.8678 54.8671 14.8249 54.7152 14.7191C54.5633 14.6132 54.4583 14.4526 54.4223 14.271C54.3289 13.7512 54.1308 13.2557 53.8401 12.8147C53.5494 12.3737 53.1722 11.9964 52.7313 11.7055C52.2904 11.4147 51.7951 11.2164 51.2753 11.1228C50.7555 11.0291 50.2221 11.042 49.7074 11.1606C49.4349 11.2218 49.17 11.3129 48.9174 11.4322C48.8036 11.4956 48.6746 11.5268 48.5443 11.5224C48.414 11.5179 48.2874 11.478 48.1782 11.4068C48.0689 11.3357 47.9812 11.2361 47.9244 11.1187C47.8676 11.0014 47.844 10.8708 47.856 10.741V10.5188C47.856 10.5188 47.856 10.3954 47.856 10.2966C47.8493 9.53611 47.6205 8.79413 47.1977 8.16198C46.7748 7.52983 46.1763 7.03511 45.476 6.73868C44.7756 6.44226 44.0038 6.35708 43.2556 6.49361C42.5074 6.63015 41.8155 6.98244 41.2649 7.50715C40.538 8.23381 40.1296 9.21945 40.1294 10.2473V10.5928C40.1409 10.7073 40.1246 10.8229 40.0819 10.9298C40.0392 11.0367 39.9714 11.1317 39.8842 11.2068C39.797 11.2818 39.693 11.3348 39.581 11.3612C39.4689 11.3875 39.3522 11.3865 39.2407 11.3581H38.6976H38.1298C37.102 11.3581 36.1162 11.7664 35.3893 12.4933C34.6625 13.2201 34.2542 14.2059 34.2542 15.2337C34.2542 15.2337 34.2542 15.3819 34.2542 15.4559C34.2709 15.5457 34.2709 15.6377 34.2542 15.7275C34.2238 15.8137 34.1766 15.893 34.1154 15.9608C34.0542 16.0287 33.9801 16.0837 33.8974 16.1227C33.8148 16.1618 33.7252 16.184 33.6339 16.1882C33.5426 16.1924 33.4514 16.1784 33.3655 16.1471L32.7484 15.8509ZM32.0819 14.3944H32.9459C33.1024 13.1093 33.7233 11.9256 34.6917 11.0664C35.6601 10.2071 36.9092 9.73139 38.2039 9.72885H38.7963C38.8922 8.47088 39.4351 7.28875 40.3269 6.3963C41.3148 5.42539 42.6445 4.88135 44.0297 4.88135C45.4149 4.88135 46.7446 5.42539 47.7325 6.3963C48.6137 7.27611 49.1558 8.43891 49.263 9.67948C50.5751 9.32822 51.9718 9.49333 53.1658 10.1408C54.3597 10.7883 55.26 11.8689 55.6813 13.1602L56.1997 12.9874C57.1112 12.7182 58.0785 12.7 58.9996 12.9346C59.9206 13.1692 60.7613 13.6479 61.433 14.3204C62.404 15.3083 62.948 16.6381 62.948 18.0232C62.948 19.4084 62.404 20.7381 61.433 21.7261C60.9362 22.2185 60.3465 22.6074 59.6981 22.8702C59.0498 23.1329 58.3557 23.2642 57.6561 23.2566H57.3599C56.9743 25.6126 55.7026 27.7321 53.8052 29.1811C51.5735 30.8755 48.8591 31.8132 46.0573 31.8576C43.2556 31.902 40.5129 31.0508 38.2286 29.428C36.4764 28.1783 35.1908 26.3802 34.5751 24.318L33.8839 24.6143C32.9331 24.9621 31.9027 25.0307 30.9142 24.812C29.9257 24.5933 29.0203 24.0964 28.305 23.38C27.5783 22.6338 27.0872 21.6903 26.8929 20.667C26.6987 19.6437 26.8098 18.5859 27.2124 17.6253C27.6151 16.6647 28.2915 15.8438 29.1574 15.2649C30.0232 14.6861 31.0403 14.3747 32.0819 14.3697V14.3944Z" fill="#A3283E" stroke="#A3283E"/>
<path fill-rule="evenodd" clip-rule="evenodd" d="M39.8102 14.0989C40.6999 14.0989 41.5695 14.363 42.3088 14.8578C43.0482 15.3526 43.624 16.0557 43.9633 16.8781C44.3026 17.7005 44.3902 18.6051 44.2148 19.4773C44.0394 20.3495 43.6091 21.15 42.9783 21.7773C42.3475 22.4046 41.5446 22.8306 40.6715 23.0011C39.7984 23.1717 38.8942 23.0792 38.0737 22.7353C37.2532 22.3915 36.5533 21.8118 36.0626 21.0697C35.5719 20.3277 35.3126 19.4566 35.3175 18.567C35.3175 17.3754 35.7908 16.2327 36.6334 15.3901C37.4759 14.5476 38.6187 14.0742 39.8102 14.0742" fill="white"/>
<path d="M39.8102 14.0989C40.6999 14.0989 41.5695 14.363 42.3088 14.8578C43.0482 15.3526 43.624 16.0557 43.9633 16.8781C44.3026 17.7005 44.3902 18.6051 44.2148 19.4773C44.0394 20.3495 43.6091 21.15 42.9783 21.7773C42.3475 22.4046 41.5446 22.8306 40.6715 23.0011C39.7984 23.1717 38.8942 23.0792 38.0737 22.7353C37.2532 22.3915 36.5533 21.8118 36.0626 21.0697C35.5719 20.3277 35.3126 19.4566 35.3175 18.567C35.3175 17.3754 35.7908 16.2327 36.6334 15.3901C37.4759 14.5476 38.6187 14.0742 39.8102 14.0742" stroke="#A3283E"/>
<path d="M42.4758 15.8509C41.772 15.1373 40.8136 14.7325 39.8113 14.7256C38.809 14.7186 37.845 15.1101 37.1314 15.8139C36.4178 16.5177 36.013 17.4762 36.006 18.4785C35.9991 19.4807 36.3906 20.4447 37.0944 21.1583C37.7982 21.872 38.7566 22.2768 39.7589 22.2837C40.7612 22.2907 41.7252 21.8992 42.4388 21.1954C43.1524 20.4916 43.5572 19.5331 43.5642 18.5308C43.5711 17.5285 43.1796 16.5646 42.4758 15.8509ZM39.8098 13.3824C40.8387 13.3774 41.8459 13.6787 42.703 14.248C43.5601 14.8173 44.2285 15.6287 44.6229 16.5791C45.0173 17.5294 45.12 18.5757 44.9179 19.5846C44.7158 20.5935 44.218 21.5194 43.4879 22.2445C43.0053 22.7371 42.4291 23.1285 41.7933 23.3957C41.1575 23.6628 40.4748 23.8005 39.7851 23.8005C39.0954 23.8005 38.4127 23.6628 37.7769 23.3957C37.141 23.1285 36.5649 22.7371 36.0823 22.2445C35.349 21.5165 34.8501 20.586 34.6494 19.5724C34.4488 18.5588 34.5557 17.5084 34.9563 16.5559C35.3569 15.6035 36.033 14.7925 36.8978 14.227C37.7626 13.6616 38.7766 13.3674 39.8098 13.3824Z" fill="#A3283E" stroke="#A3283E"/>
<path fill-rule="evenodd" clip-rule="evenodd" d="M2.80469 20.3203H63.0869C63.0869 31.0339 52.5956 44.5616 41.6351 44.5616H24.2565C13.2961 44.5863 2.80469 31.0339 2.80469 20.3203Z" fill="white" stroke="#A3283E"/>
<path d="M31.7368 21.0352H3.52118C3.96552 31.3045 13.8891 43.8694 24.2324 43.8694H41.6604C44.3606 43.6672 46.989 42.9042 49.3778 41.629C51.7665 40.3539 53.8631 38.5947 55.5337 36.4638C59.4463 32.2093 61.8568 26.79 62.3963 21.0352H31.7368ZM2.80529 19.6282H63.0875C63.2774 19.6282 63.4595 19.7036 63.5938 19.8378C63.728 19.9721 63.8034 20.1542 63.8034 20.3441C63.4555 26.7141 60.8978 32.7636 56.5705 37.4512C54.7789 39.7129 52.5375 41.5783 49.9881 42.9295C47.4387 44.2807 44.6367 45.0883 41.7592 45.3012H24.2571C12.9511 45.3012 2.04004 31.3785 2.04004 20.3441C2.03981 20.2457 2.05983 20.1484 2.09885 20.0582C2.13787 19.968 2.19507 19.8867 2.26686 19.8196C2.33866 19.7524 2.42352 19.7007 2.51615 19.6678C2.60879 19.6349 2.70721 19.6214 2.80529 19.6282Z" fill="#A3283E" stroke="#A3283E"/>
<path fill-rule="evenodd" clip-rule="evenodd" d="M50.3983 17.3072C46.3252 14.1968 44.2023 14.3696 42.9927 16.3691C42.0793 17.949 40.7216 26.5643 39.9316 29.5019C45.634 28.4404 51.1883 27.2308 54.3727 21.8494C56.0267 19.0599 55.8045 16.9122 50.3737 17.3072" fill="white"/>
<path d="M50.3983 17.3072C46.3252 14.1968 44.2023 14.3696 42.9927 16.3691C42.0793 17.949 40.7216 26.5643 39.9316 29.5019C45.634 28.4404 51.1883 27.2308 54.3727 21.8494C56.0267 19.0599 55.8045 16.9122 50.3737 17.3072" stroke="#A3283E"/>
<path d="M45.6831 14.2222C47.5225 14.5814 49.2292 15.4348 50.6202 16.6907C53.4591 16.5426 55.0143 17.1104 55.5574 18.1225C56.2486 19.2333 55.8783 20.5911 54.9155 22.319C53.3949 24.89 51.0825 26.8993 48.3245 28.0461C45.6542 29.108 42.8714 29.8617 40.0301 30.2925C39.9246 30.3177 39.8147 30.3177 39.7092 30.2925C39.5309 30.2406 39.3798 30.1215 39.2877 29.9603C39.1956 29.7991 39.1697 29.6084 39.2155 29.4285C39.487 28.3917 39.8573 26.565 40.2276 24.6148C40.6577 21.7163 41.3603 18.8648 42.3259 16.0983C42.6171 15.4987 43.0864 15.0038 43.6697 14.6812C44.253 14.3586 44.9217 14.2242 45.5844 14.2962M49.8797 17.9497C48.6404 16.8241 47.1238 16.0488 45.4856 15.7033C45.0898 15.6703 44.6932 15.759 44.3491 15.9575C44.005 16.156 43.7298 16.4549 43.5602 16.8142C42.6856 19.4456 42.0332 22.1458 41.61 24.8863C41.3385 26.3181 41.0669 27.6511 40.8201 28.7126C43.1972 28.3208 45.5236 27.6668 47.7567 26.7625C50.2451 25.7307 52.3324 23.9205 53.7059 21.6032C54.3971 20.4429 54.718 19.4555 54.3725 18.8877C54.0269 18.32 52.7679 17.9497 50.3487 18.1225C50.1924 18.0884 50.0529 18.0011 49.9537 17.8756L49.8797 17.9497Z" fill="#A3283E"/>
<path d="M45.6831 14.2222C47.5225 14.5814 49.2292 15.4348 50.6202 16.6907C53.4591 16.5426 55.0143 17.1104 55.5574 18.1225C56.2486 19.2333 55.8783 20.5911 54.9155 22.319C53.3949 24.89 51.0825 26.8993 48.3245 28.0461C45.6542 29.108 42.8714 29.8617 40.0301 30.2925C39.9246 30.3177 39.8147 30.3177 39.7092 30.2925C39.5309 30.2406 39.3798 30.1215 39.2877 29.9603C39.1956 29.7991 39.1697 29.6084 39.2155 29.4285C39.487 28.3917 39.8573 26.565 40.2276 24.6148C40.6577 21.7163 41.3603 18.8648 42.3259 16.0983C42.6171 15.4987 43.0864 15.0038 43.6697 14.6812C44.253 14.3586 44.9217 14.2242 45.5844 14.2962M49.8797 17.9497C48.6404 16.8241 47.1238 16.0488 45.4856 15.7033C45.0898 15.6703 44.6932 15.759 44.3491 15.9575C44.005 16.156 43.7298 16.4549 43.5602 16.8142C42.6856 19.4456 42.0332 22.1458 41.61 24.8863C41.3385 26.3181 41.0669 27.6511 40.8201 28.7126C43.1972 28.3208 45.5236 27.6668 47.7567 26.7625C50.2451 25.7307 52.3324 23.9205 53.7059 21.6032C54.3971 20.4429 54.718 19.4555 54.3725 18.8877C54.0269 18.32 52.7679 17.9497 50.3487 18.1225C50.1924 18.0884 50.0529 18.0011 49.9537 17.8756L49.8797 17.9497Z" stroke="#A3283E"/>
<path d="M49.7584 17.0355C49.7836 16.9358 49.83 16.8428 49.8943 16.7626C49.9587 16.6825 50.0396 16.6172 50.1315 16.5711C50.2234 16.525 50.3241 16.4992 50.4269 16.4956C50.5296 16.4919 50.6319 16.5104 50.7269 16.5498C50.8218 16.5892 50.9072 16.6486 50.9771 16.724C51.047 16.7993 51.0999 16.8888 51.1322 16.9865C51.1644 17.0841 51.1753 17.1875 51.164 17.2897C51.1527 17.3918 51.1195 17.4904 51.0667 17.5786L50.7458 18.3192C50.4637 19.196 50.0563 20.0275 49.5362 20.7877C49.0716 21.2899 48.53 21.7149 47.9317 22.0467L46.7714 22.8119C46.6191 22.8762 46.4492 22.8857 46.2906 22.8389C46.132 22.7921 45.9945 22.6919 45.9015 22.5552C45.8084 22.4185 45.7656 22.2539 45.7801 22.0892C45.7947 21.9245 45.8659 21.7699 45.9815 21.6517L47.1417 20.7877C47.6133 20.5197 48.0453 20.1874 48.4254 19.8003C48.8497 19.1463 49.1898 18.4413 49.4375 17.702L49.7584 17.0355Z" fill="#A3283E" stroke="#A3283E"/>
<path d="M16.9496 38.0688C16.852 38.0276 16.7647 37.9652 16.694 37.8862C16.6234 37.8072 16.5712 37.7134 16.5412 37.6118C16.5112 37.5101 16.5042 37.4031 16.5206 37.2983C16.537 37.1936 16.5764 37.0939 16.6361 37.0063C16.6957 36.9186 16.7741 36.8454 16.8655 36.7917C16.9569 36.7381 17.0591 36.7054 17.1647 36.6961C17.2703 36.6867 17.3766 36.7009 17.476 36.7377C17.5754 36.7744 17.6654 36.8328 17.7396 36.9085L18.8998 37.6491L20.1094 38.2909C20.2395 38.3919 20.3309 38.5346 20.368 38.695C20.4052 38.8555 20.3859 39.0238 20.3134 39.1717C20.2409 39.3196 20.1197 39.4379 19.9701 39.5068C19.8205 39.5757 19.6517 39.5909 19.4922 39.5499L18.2086 38.8587L16.9496 38.0688ZM7.37161 24.5411C7.32251 24.3545 7.34954 24.156 7.44676 23.9894C7.54398 23.8227 7.70342 23.7015 7.89001 23.6524C8.0766 23.6033 8.27505 23.6303 8.44171 23.7275C8.60837 23.8247 8.72959 23.9842 8.77869 24.1708C9.34307 26.2202 10.173 28.187 11.2473 30.0213C12.3272 31.8431 13.6566 33.5049 15.1969 34.9584C15.3344 35.086 15.4156 35.2631 15.4225 35.4506C15.4295 35.6381 15.3616 35.8207 15.234 35.9581C15.1063 36.0956 14.9293 36.1768 14.7418 36.1837C14.5543 36.1907 14.3717 36.1228 14.2342 35.9952C12.6083 34.4214 11.2122 32.6264 10.087 30.6631C8.91971 28.7491 8.00688 26.6911 7.37161 24.5411Z" fill="#A3283E" stroke="#A3283E"/>
</svg>
