<svg width="51" height="45" viewBox="0 0 51 45" fill="none" xmlns="http://www.w3.org/2000/svg">
<path d="M33.864 28.1563C31.5962 26.2628 28.7376 25.2219 25.7832 25.2139C22.8288 25.2059 19.9646 26.2313 17.6865 28.1125V28.1563" stroke="#A3283E" stroke-width="3" stroke-linecap="round" stroke-linejoin="round"/>
<path d="M25.743 33.3408C24.7389 33.3408 23.7573 33.6385 22.9224 34.1964C22.0875 34.7542 21.4368 35.5471 21.0525 36.4748C20.6682 37.4025 20.5677 38.4233 20.7636 39.4081C20.9594 40.3929 21.443 41.2976 22.153 42.0076C22.863 42.7176 23.7676 43.2012 24.7524 43.3971C25.7373 43.593 26.7581 43.4925 27.6857 43.1082C28.6134 42.7239 29.4064 42.0732 29.9642 41.2383C30.5221 40.4034 30.8198 39.4219 30.8198 38.4177C30.8198 37.0713 30.285 35.78 29.3329 34.8279C28.3808 33.8758 27.0895 33.3409 25.743 33.3408Z" stroke="#A3283E" stroke-width="3" stroke-linecap="round" stroke-linejoin="round"/>
<path d="M41.5861 19.379C37.1262 15.6998 31.5249 13.6875 25.7432 13.6875C19.9616 13.6875 14.3602 15.6998 9.90039 19.379" stroke="#A3283E" stroke-width="3" stroke-linecap="round" stroke-linejoin="round"/>
<path d="M49.1978 10.1652C42.5954 4.69599 34.291 1.70312 25.7175 1.70313C17.1441 1.70312 8.83966 4.69599 2.2373 10.1652" stroke="#A3283E" stroke-width="3" stroke-linecap="round" stroke-linejoin="round"/>
</svg>
