<svg width="63" height="48" viewBox="0 0 63 48" fill="none" xmlns="http://www.w3.org/2000/svg">
<path d="M15.7124 41.3843H4.02832V46.6952H15.7124V41.3843Z" stroke="#A3283E" stroke-width="2" stroke-miterlimit="10" stroke-linecap="round" stroke-linejoin="round"/>
<path d="M61.3867 46.6948H1.9043" stroke="#A3283E" stroke-width="2" stroke-miterlimit="10" stroke-linecap="round" stroke-linejoin="round"/>
<path d="M12.5258 16.9541H7.21484V41.3844H12.5258V16.9541Z" stroke="#A3283E" stroke-width="2" stroke-miterlimit="10" stroke-linecap="round" stroke-linejoin="round"/>
<path d="M9.87069 16.9538C14.2704 16.9538 17.8371 13.3871 17.8371 8.98739C17.8371 4.58767 14.2704 1.021 9.87069 1.021C5.47097 1.021 1.9043 4.58767 1.9043 8.98739C1.9043 13.3871 5.47097 16.9538 9.87069 16.9538Z" stroke="#A3283E" stroke-width="2" stroke-miterlimit="10" stroke-linecap="round" stroke-linejoin="round"/>
<path d="M8.27734 12.7053V5.27002H10.4017C11.575 5.27002 12.5261 6.22113 12.5261 7.39439C12.5261 8.56765 11.575 9.51876 10.4017 9.51876H9.33953" stroke="#A3283E" stroke-width="2" stroke-miterlimit="10" stroke-linecap="round" stroke-linejoin="round"/>
<path d="M34.8321 41.9156C34.8321 44.5554 32.6921 46.6954 30.0523 46.6954C27.4125 46.6954 25.2725 44.5554 25.2725 41.9156C25.2725 41.3568 25.3683 40.8204 25.5445 40.322C26.2008 38.4657 27.9712 37.1357 30.0523 37.1357C32.6921 37.1357 34.8321 39.2757 34.8321 41.9156Z" stroke="#A3283E" stroke-width="2" stroke-miterlimit="10" stroke-linecap="round" stroke-linejoin="round"/>
<path d="M56.0763 41.9156C56.0763 44.5554 53.9363 46.6954 51.2964 46.6954C48.6566 46.6954 46.5166 44.5554 46.5166 41.9156C46.5166 41.3568 46.6125 40.8204 46.7887 40.322C47.4449 38.4657 49.2154 37.1357 51.2964 37.1357C53.9363 37.1357 56.0763 39.2757 56.0763 41.9156Z" stroke="#A3283E" stroke-width="2" stroke-miterlimit="10" stroke-linecap="round" stroke-linejoin="round"/>
<path d="M51.8268 41.9154C51.8268 42.2087 51.5891 42.4465 51.2957 42.4465C51.0024 42.4465 50.7646 42.2087 50.7646 41.9154C50.7646 41.8533 50.7753 41.7937 50.7949 41.7383C50.8678 41.532 51.0645 41.3843 51.2957 41.3843C51.5891 41.3843 51.8268 41.6221 51.8268 41.9154Z" stroke="#A3283E" stroke-width="2" stroke-miterlimit="10" stroke-linecap="round" stroke-linejoin="round"/>
<path d="M30.5837 41.9154C30.5837 42.2087 30.3459 42.4465 30.0526 42.4465C29.7593 42.4465 29.5215 42.2087 29.5215 41.9154C29.5215 41.8533 29.5321 41.7937 29.5517 41.7383C29.6246 41.532 29.8213 41.3843 30.0526 41.3843C30.3459 41.3843 30.5837 41.6221 30.5837 41.9154Z" stroke="#A3283E" stroke-width="2" stroke-miterlimit="10" stroke-linecap="round" stroke-linejoin="round"/>
<path d="M25.2716 40.3223H19.9609" stroke="#A3283E" stroke-width="2" stroke-miterlimit="10" stroke-linecap="round" stroke-linejoin="round"/>
<path d="M46.5158 40.3223H34.8311" stroke="#A3283E" stroke-width="2" stroke-miterlimit="10" stroke-linecap="round" stroke-linejoin="round"/>
<path d="M61.3872 40.3223H56.0762" stroke="#A3283E" stroke-width="2" stroke-miterlimit="10" stroke-linecap="round" stroke-linejoin="round"/>
<path d="M22.0859 40.3222V33.949C22.0859 31.6025 23.9882 29.7003 26.3347 29.7003L26.3347 26.3146C26.3347 22.9048 29.0989 20.1406 32.5086 20.1406H41.9685C44.8097 20.1406 47.4628 21.5606 49.0388 23.9246L52.8893 29.7003C56.4091 29.7003 59.2625 32.5536 59.2625 36.0734V40.3222" stroke="#A3283E" stroke-width="2" stroke-miterlimit="10" stroke-linecap="round" stroke-linejoin="round"/>
<path d="M41.2051 24.3892V29.7001H46.516C46.516 26.7669 44.1382 24.3892 41.2051 24.3892Z" stroke="#A3283E" stroke-width="2" stroke-miterlimit="10" stroke-linecap="round" stroke-linejoin="round"/>
<path d="M36.9561 29.7001H30.583V27.5978C30.583 25.8257 32.0196 24.3892 33.7917 24.3892H36.9561V29.7001Z" stroke="#A3283E" stroke-width="2" stroke-miterlimit="10" stroke-linecap="round" stroke-linejoin="round"/>
<path d="M41.2051 33.9487H43.3295" stroke="#A3283E" stroke-width="2" stroke-miterlimit="10" stroke-linecap="round" stroke-linejoin="round"/>
</svg>
