<svg width="46" height="45" viewBox="0 0 46 45" fill="none" xmlns="http://www.w3.org/2000/svg">
<path d="M33.0248 15.0339H28.2558L32.2285 10.4929C32.7417 9.90667 33.0248 9.15389 33.0248 8.37466V8.2424C33.0248 6.46876 31.5815 5.02539 29.8078 5.02539C28.0342 5.02539 26.5908 6.46876 26.5908 8.2424V9.31474H28.0206V8.2424C28.0206 7.25657 28.822 6.45517 29.8078 6.45517C30.7937 6.45517 31.5951 7.25657 31.5951 8.2424V8.37466C31.5951 8.80788 31.4378 9.22538 31.1525 9.55137L26.5908 14.7651V16.4636H33.0248V15.0339Z" fill="#A3283E"/>
<path d="M38.7434 16.4636H40.1732V14.319H41.603V12.8892H40.1732V5.02539H38.3016L34.4541 12.7205V14.319H38.7434V16.4636ZM35.9682 12.8892L38.7434 7.33878V12.8892H35.9682Z" fill="#A3283E"/>
<path d="M36.1737 22.6309C41.3145 21.5113 45.1777 16.9303 45.1777 11.4593C45.1777 5.15248 40.0462 0.0209961 33.7395 0.0209961C28.2684 0.0209961 23.6874 3.88427 22.5679 9.02505C21.3061 8.74767 20.0186 8.59969 18.7268 8.59969C8.87199 8.59969 0.854492 16.6172 0.854492 26.472C0.854492 36.3267 8.87199 44.3442 18.7268 44.3442C28.5815 44.3442 36.599 36.3267 36.599 26.472C36.599 25.1802 36.4511 23.8926 36.1737 22.6309ZM33.7395 1.45078C39.2584 1.45078 43.748 5.94029 43.748 11.4593C43.748 16.9782 39.2584 21.4677 33.7395 21.4677C28.2205 21.4677 23.731 16.9782 23.731 11.4593C23.731 5.94029 28.2205 1.45078 33.7395 1.45078ZM32.2818 25.7571H30.8799V27.1869H32.2732C32.1052 30.3924 30.8263 33.3013 28.8082 35.5425L27.8252 34.5595L26.8143 35.5704L27.7973 36.5534C25.5561 38.5722 22.6472 39.8504 19.4417 40.0184V38.6251H18.0119V40.0184C14.8063 39.8504 11.8974 38.5715 9.65623 36.5534L10.6392 35.5704L9.62835 34.5595L8.64537 35.5425C6.62652 33.3013 5.3483 30.3924 5.1803 27.1869H6.57362V25.7571H5.1803C5.3483 22.5515 6.62724 19.6426 8.64537 17.4014L9.62835 18.3844L10.6392 17.3735L9.65623 16.3906C11.8974 14.3717 14.8063 13.0935 18.0119 12.9255V14.3188H19.4417V12.9169C20.4697 12.9712 21.4877 13.1443 22.4835 13.4316C23.3099 18.1578 27.0402 21.8881 31.7671 22.7152C32.0538 23.7111 32.2268 24.7291 32.2818 25.7571ZM18.7268 42.9145C9.65981 42.9145 2.28427 35.5389 2.28427 26.472C2.28427 17.405 9.65981 10.0295 18.7268 10.0295C19.9464 10.0295 21.1624 10.1732 22.3527 10.442C22.3227 10.778 22.3012 11.1161 22.3012 11.4593C22.3012 11.6087 22.3177 11.7545 22.3234 11.9032C21.1438 11.6108 19.9385 11.4593 18.7268 11.4593C10.449 11.4593 3.71406 18.1942 3.71406 26.472C3.71406 34.7497 10.449 41.4847 18.7268 41.4847C27.0045 41.4847 33.7395 34.7497 33.7395 26.472C33.7395 25.2602 33.5879 24.0549 33.2955 22.8753C33.4442 22.8811 33.5901 22.8975 33.7395 22.8975C34.0826 22.8975 34.4208 22.8761 34.7568 22.846C35.0256 24.0363 35.1693 25.2524 35.1693 26.472C35.1693 35.5389 27.7937 42.9145 18.7268 42.9145Z" fill="#A3283E"/>
<path d="M20.8714 26.4719C20.8714 25.5411 20.2716 24.7547 19.4416 24.4588V15.7485H18.0118V24.4588C17.1818 24.7547 16.582 25.5411 16.582 26.4719C16.582 27.6543 17.5443 28.6166 18.7267 28.6166C19.057 28.6166 19.3658 28.5358 19.6453 28.4014L24.6553 33.4113L25.6662 32.4005L20.6562 27.3905C20.7906 27.111 20.8714 26.8022 20.8714 26.4719ZM18.0118 26.4719C18.0118 26.0773 18.3321 25.757 18.7267 25.757C19.1213 25.757 19.4416 26.0773 19.4416 26.4719C19.4416 26.8665 19.1213 27.1868 18.7267 27.1868C18.3321 27.1868 18.0118 26.8665 18.0118 26.4719Z" fill="#A3283E"/>
<path d="M40.1736 24.3271C38.9911 24.3271 38.0289 25.2894 38.0289 26.4718C38.0289 27.3662 38.5801 28.1332 39.36 28.4542C38.9118 33.1611 36.8586 37.5912 33.5322 40.9841L34.5531 41.985C38.1268 38.3404 40.3251 33.5757 40.7905 28.515C41.6713 28.2483 42.3182 27.4391 42.3182 26.4718C42.3182 25.2894 41.356 24.3271 40.1736 24.3271ZM40.1736 27.1867C39.7789 27.1867 39.4587 26.8664 39.4587 26.4718C39.4587 26.0772 39.7789 25.7569 40.1736 25.7569C40.5682 25.7569 40.8885 26.0772 40.8885 26.4718C40.8885 26.8664 40.5682 27.1867 40.1736 27.1867Z" fill="#A3283E"/>
<path d="M4.63072 11.2682C7.96068 8.17914 12.245 6.27968 16.7474 5.85003C17.072 6.62426 17.8362 7.16972 18.7262 7.16972C19.9087 7.16972 20.8709 6.20747 20.8709 5.02504C20.8709 3.84261 19.9087 2.88037 18.7262 2.88037C17.7597 2.88037 16.9497 3.52735 16.6831 4.40809C11.8425 4.85419 7.23649 6.90235 3.65918 10.2202L4.63072 11.2682ZM18.7262 4.31015C19.1208 4.31015 19.4411 4.63042 19.4411 5.02504C19.4411 5.41966 19.1208 5.73994 18.7262 5.73994C18.3316 5.73994 18.0113 5.41966 18.0113 5.02504C18.0113 4.63042 18.3316 4.31015 18.7262 4.31015Z" fill="#A3283E"/>
</svg>
