<svg width="36" height="35" viewBox="0 0 36 35" fill="none" xmlns="http://www.w3.org/2000/svg">
<path d="M34.5239 17.5C34.5239 26.8888 26.9128 34.5 17.5239 34.5C8.13509 34.5 0.523926 26.8888 0.523926 17.5C0.523926 8.11116 8.13509 0.5 17.5239 0.5C26.9128 0.5 34.5239 8.11116 34.5239 17.5Z" stroke="white"/>
<path d="M24.8623 10.5218L7.7845 17.1073C6.61901 17.5754 6.62576 18.2256 7.57067 18.5155L11.9552 19.8833L22.0998 13.4828C22.5794 13.1909 23.0177 13.3479 22.6575 13.6677L14.4384 21.0854H14.4364L14.4384 21.0864L14.1359 25.6057C14.579 25.6057 14.7745 25.4025 15.023 25.1627L17.1527 23.0918L21.5825 26.3638C22.3993 26.8136 22.9859 26.5824 23.1892 25.6077L26.0971 11.9031C26.3947 10.7097 25.6415 10.1693 24.8623 10.5218Z" fill="white"/>
</svg>
