<svg width="36" height="35" viewBox="0 0 36 35" fill="none" xmlns="http://www.w3.org/2000/svg">
<g clip-path="url(#clip0_20_1728)">
<path d="M34.5239 17.5C34.5239 26.8888 26.9128 34.5 17.5239 34.5C8.13509 34.5 0.523926 26.8888 0.523926 17.5C0.523926 8.11116 8.13509 0.5 17.5239 0.5C26.9128 0.5 34.5239 8.11116 34.5239 17.5Z" stroke="white"/>
<path d="M18.1649 23.953C11.3798 23.953 7.51191 19.3004 7.34912 11.5581H10.7466C10.8589 17.2395 13.3642 19.6472 15.3487 20.1437V11.5581H18.5507V16.4581C20.5042 16.2481 22.5701 14.0162 23.2635 11.5581H26.4656C25.9317 14.5844 23.6982 16.8179 22.111 17.736C23.3524 18.3525 24.4488 19.2254 25.3277 20.2971C26.2066 21.3689 26.8481 22.6149 27.2096 23.953H23.6868C22.9298 21.5958 21.0431 19.7725 18.5507 19.5251V23.953H18.1649Z" fill="white"/>
</g>
<defs>
<clipPath id="clip0_20_1728">
<rect width="35" height="35" fill="white" transform="translate(0.0239258)"/>
</clipPath>
</defs>
</svg>
