<svg width="36" height="35" viewBox="0 0 36 35" fill="none" xmlns="http://www.w3.org/2000/svg">
<path d="M34.5239 17.5C34.5239 26.8888 26.9128 34.5 17.5239 34.5C8.13509 34.5 0.523926 26.8888 0.523926 17.5C0.523926 8.11116 8.13509 0.5 17.5239 0.5C26.9128 0.5 34.5239 8.11116 34.5239 17.5Z" stroke="white"/>
<path fill-rule="evenodd" clip-rule="evenodd" d="M24.1189 11.0341C23.2724 10.182 22.2652 9.5064 21.1557 9.04635C20.0462 8.5863 18.8564 8.35098 17.6553 8.35403C12.6188 8.35403 8.51881 12.4531 8.51677 17.4916C8.51677 19.1019 8.93716 20.6735 9.7362 22.0599L8.44043 26.794L13.2845 25.5227C14.6245 26.2521 16.1257 26.6346 17.6513 26.6353H17.6553C22.6908 26.6353 26.7909 22.5362 26.7929 17.4977C26.7964 16.2971 26.5618 15.1077 26.1029 13.9983C25.6439 12.8888 24.9696 11.8814 24.1189 11.0341ZM17.6553 25.0932H17.6523C16.2919 25.0933 14.9566 24.7273 13.7864 24.0335L13.5095 23.8686L10.635 24.6229L11.4015 21.8207L11.2213 21.5336C10.4607 20.3228 10.0581 18.9215 10.0599 17.4916C10.0619 13.304 13.4688 9.89715 17.6584 9.89715C18.6562 9.89493 19.6445 10.0906 20.5661 10.4729C21.4878 10.8552 22.3245 11.4165 23.0277 12.1243C23.7348 12.8287 24.2952 13.6663 24.6766 14.5886C25.058 15.5109 25.2528 16.4996 25.2498 17.4977C25.2477 21.6853 21.8409 25.0932 17.6553 25.0932ZM21.8215 19.4042C21.5925 19.2892 20.4708 18.7375 20.2611 18.6611C20.0525 18.5848 19.9008 18.5471 19.7481 18.7751C19.5954 19.0031 19.1577 19.5172 19.0244 19.6699C18.8911 19.8225 18.7577 19.8409 18.5297 19.7269C18.3017 19.6129 17.5658 19.3716 16.6934 18.594C16.0145 17.9883 15.5565 17.2412 15.4231 17.0122C15.2898 16.7831 15.4089 16.66 15.5239 16.546C15.6267 16.4442 15.7519 16.2793 15.8659 16.1459C15.9799 16.0126 16.0176 15.9179 16.0939 15.7653C16.1702 15.6126 16.1326 15.4792 16.0746 15.3652C16.0176 15.2502 15.5605 14.1265 15.3702 13.6694C15.186 13.2266 14.9976 13.2857 14.8572 13.2796C14.7117 13.2736 14.5661 13.2709 14.4205 13.2714C14.3047 13.2744 14.1908 13.3012 14.0859 13.3503C13.981 13.3993 13.8873 13.4695 13.8108 13.5564C13.6011 13.7855 13.0118 14.3372 13.0118 15.4609C13.0118 16.5847 13.8301 17.6707 13.9441 17.8234C14.0581 17.9761 15.5544 20.2816 17.8447 21.271C18.3903 21.5061 18.8157 21.6466 19.1465 21.7525C19.6931 21.9265 20.1909 21.9011 20.5848 21.843C21.0235 21.7779 21.9355 21.2914 22.1259 20.758C22.3162 20.2246 22.3162 19.7676 22.2592 19.6719C22.2022 19.5762 22.0485 19.5182 21.8215 19.4042Z" fill="white"/>
</svg>
